<svg version="1.1" id="Layer_1" xmlns="http://www.w3.org/2000/svg" xmlns:xlink="http://www.w3.org/1999/xlink" x="0px" y="0px"
	 width="100%" viewBox="0 0 910 350" enable-background="new 0 0 910 350" xml:space="preserve">
<path fill="#FFFFFF" opacity="1.000000" stroke="none" 
	d="
M839.000000,351.000000 
	C559.333374,351.000000 280.166779,351.000000 1.000112,351.000000 
	C1.000075,234.333405 1.000075,117.666809 1.000037,1.000159 
	C304.333221,1.000106 607.666443,1.000106 910.999756,1.000053 
	C910.999817,117.666527 910.999817,234.333054 910.999878,350.999786 
	C887.166687,351.000000 863.333313,351.000000 839.000000,351.000000 
M834.991516,215.609329 
	C841.190186,210.586731 841.209839,205.336487 835.213928,200.435928 
	C834.210083,199.615479 833.277466,198.162155 833.141296,196.911011 
	C831.900330,185.508682 831.991028,185.444702 842.387817,180.642273 
	C843.052002,180.335495 843.662109,179.911621 844.473938,179.439606 
	C843.774536,178.914642 843.421204,178.532990 842.984436,178.338333 
	C821.255554,168.655090 799.544983,158.929398 777.737671,149.425690 
	C775.921997,148.634430 773.157654,148.681839 771.325500,149.474854 
	C754.226746,156.875610 737.230713,164.514221 720.215881,172.108322 
	C715.137695,174.374832 710.093689,176.718048 704.669922,179.192200 
	C705.674377,179.917694 706.038818,180.287155 706.480164,180.484451 
	C728.350952,190.259323 750.203308,200.076660 772.155640,209.665054 
	C773.789917,210.378922 776.367798,209.951691 778.132080,209.188278 
	C793.094360,202.714066 807.964661,196.027435 822.878296,189.440170 
	C824.427795,188.755722 826.079468,188.302567 828.142639,187.581818 
	C828.154480,193.481354 829.978149,198.578278 824.247192,202.566895 
	C820.712952,205.026611 821.038940,210.688919 824.485352,213.663879 
	C827.307007,216.099625 827.229187,218.597778 826.765686,221.636017 
	C826.022400,226.507980 825.396484,231.397842 824.670959,236.641998 
	C829.110962,236.641998 832.844788,236.641998 836.889343,236.641998 
	C836.066345,229.610992 835.280701,222.898758 834.991516,215.609329 
M214.258041,221.272614 
	C214.343781,222.881027 214.429520,224.489441 214.519943,226.185501 
	C217.811401,226.185501 220.692963,226.185501 224.111084,226.185501 
	C224.111084,216.544327 224.111084,207.296036 224.111084,198.123993 
	C234.034668,198.123993 243.411743,198.123993 253.358856,198.123993 
	C253.358856,207.772659 253.358856,216.993698 253.358856,226.275055 
	C256.700531,226.275055 259.455139,226.275055 262.387115,226.275055 
	C262.387115,204.602249 262.387115,183.240921 262.387115,161.854477 
	C259.150604,161.854477 256.279602,161.854477 252.963623,161.854477 
	C252.963623,171.046417 252.963623,179.802994 252.963623,188.704208 
	C243.113953,188.704208 233.721069,188.704208 223.701889,188.704208 
	C223.701889,179.533081 223.701889,170.658112 223.701889,161.720001 
	C220.312881,161.720001 217.557327,161.720001 214.258377,161.720001 
	C214.258377,181.456558 214.258377,200.892822 214.258041,221.272614 
M686.028442,201.212601 
	C686.019897,196.224701 686.237244,191.224121 685.957703,186.251450 
	C685.292603,174.419830 677.820618,164.428772 666.651123,162.624268 
	C657.093140,161.080170 647.219421,161.490585 637.246094,161.025375 
	C637.246094,183.356079 637.246094,204.705948 637.246094,226.219940 
	C645.318298,226.219940 653.090088,226.217621 660.861938,226.220459 
	C673.609802,226.225098 684.300476,217.391724 686.028442,201.212601 
M333.533539,217.985870 
	C330.415802,217.985870 327.298096,217.985870 324.083069,217.985870 
	C324.083069,210.979370 324.083069,204.585281 324.083069,197.632797 
	C333.672455,197.632797 342.921234,197.632797 352.371948,197.632797 
	C352.371948,194.516251 352.371948,191.968307 352.371948,188.936676 
	C342.767059,188.936676 333.505524,188.936676 324.123108,188.936676 
	C324.123108,182.416046 324.123108,176.388672 324.123108,169.935104 
	C334.786041,169.935104 345.058228,169.935104 355.601898,169.935104 
	C356.045502,167.023254 356.429535,164.502319 356.839417,161.811752 
	C342.311737,161.811752 328.404877,161.811752 314.431091,161.811752 
	C314.431091,183.443359 314.431091,204.706543 314.431091,226.160889 
	C328.736481,226.160889 342.769104,226.160889 356.783020,226.160889 
	C357.103851,217.986938 357.103851,217.986694 349.520660,217.985962 
	C344.521332,217.985489 339.522034,217.985870 333.533539,217.985870 
M432.719971,226.555481 
	C445.024384,226.555481 457.328796,226.555481 470.219421,226.555481 
	C469.859283,223.431335 469.564575,220.874619 469.212494,217.820419 
	C458.202271,217.820419 447.610138,217.820419 437.134094,217.820419 
	C437.134094,210.856033 437.134094,204.452774 437.134094,197.505310 
	C446.796936,197.505310 456.047455,197.505310 465.288879,197.505310 
	C465.288879,194.384064 465.288879,191.834747 465.288879,188.809540 
	C455.606476,188.809540 446.341675,188.809540 436.991699,188.809540 
	C436.991699,182.397812 436.991699,176.474533 436.991699,169.957489 
	C447.663727,169.957489 458.070496,169.957489 468.581390,169.957489 
	C469.002960,166.969437 469.344055,164.551712 469.736664,161.769043 
	C455.495270,161.769043 441.603485,161.769043 427.430145,161.769043 
	C427.430145,183.278915 427.430145,204.542831 427.430145,226.235779 
	C428.892273,226.342819 430.338989,226.448715 432.719971,226.555481 
M95.124474,215.451218 
	C96.762428,214.447433 98.358055,212.670151 100.045891,212.577759 
	C106.352341,212.232605 112.688995,212.439209 119.014320,212.439117 
	C127.202560,212.439011 127.202583,212.439102 130.205109,220.049530 
	C133.102493,227.393417 134.162445,227.905090 141.923309,225.701477 
	C141.958588,225.385147 142.114090,225.022156 142.012009,224.759140 
	C134.135910,204.464966 126.230949,184.181992 118.351959,163.888947 
	C116.754349,159.774170 113.205727,161.570511 110.583786,161.653824 
	C109.014648,161.703674 106.718445,163.363678 106.097725,164.859589 
	C101.512833,175.908890 97.268112,187.099319 92.914955,198.244781 
	C89.314110,207.464096 85.711288,216.682663 82.062851,226.020554 
	C90.585487,227.211563 90.582527,227.210419 93.390411,219.938736 
	C93.869469,218.698105 94.386047,217.471970 95.124474,215.451218 
M177.081726,169.271591 
	C186.777390,171.042755 189.014587,173.426529 191.368881,183.758484 
	C191.623550,184.876144 193.248627,186.165390 194.463623,186.467438 
	C196.305939,186.925400 198.346191,186.587143 200.226089,186.587143 
	C200.508652,185.589066 200.760376,185.124313 200.752960,184.663727 
	C200.586548,174.310959 194.617538,165.109131 185.424011,162.278030 
	C175.171646,159.120850 162.929611,161.041458 155.379913,168.797424 
	C146.987244,177.419373 147.063507,210.705322 155.251328,219.041550 
	C162.846252,226.774124 171.747681,227.878357 181.385681,226.816544 
	C192.939194,225.543716 202.086884,213.196136 200.095413,202.094849 
	C197.526810,202.094849 194.929153,202.094849 192.224579,202.094849 
	C192.048996,203.119751 191.938507,203.927856 191.770004,204.723679 
	C189.621262,214.871887 184.178833,219.307083 174.404465,218.886658 
	C165.344604,218.496933 159.715759,213.166153 158.828445,203.290924 
	C158.295425,197.358749 158.238495,191.306183 158.747849,185.374710 
	C159.702072,174.263092 165.046112,169.577179 177.081726,169.271591 
M773.174011,238.018967 
	C774.710266,240.581039 775.281067,238.525482 776.102112,237.427490 
	C783.928040,226.961639 794.216370,220.472061 807.149414,218.312119 
	C809.377136,217.940079 811.637512,217.763184 814.870117,217.378754 
	C813.803284,211.527191 812.829529,206.186325 811.714355,200.069641 
	C800.815613,204.866028 791.220093,208.639450 782.067566,213.285599 
	C776.585571,216.068466 772.063232,215.961914 766.694885,213.178726 
	C759.178650,209.281998 751.255066,206.169830 743.496948,202.741974 
	C741.898682,202.035751 740.261536,201.417252 737.367249,200.239410 
	C736.258179,206.444901 735.301819,211.796112 734.252930,217.665100 
	C751.049072,218.283203 763.430969,225.108871 773.174011,238.018967 
M390.433838,226.549515 
	C394.085602,227.216171 395.640991,225.439407 396.786896,222.065414 
	C401.329437,208.689911 406.186951,195.421494 410.908997,182.106735 
	C413.274048,175.437927 415.598724,168.754776 417.973602,161.987122 
	C409.460022,160.743149 409.445923,160.738129 406.827240,168.096359 
	C404.876801,173.576874 402.974670,179.074539 401.040649,184.560913 
	C397.692444,194.058853 394.336243,203.553955 390.643829,214.011993 
	C389.609497,211.415848 388.944916,209.909180 388.402008,208.359879 
	C383.730347,195.028320 379.078247,181.689911 374.425354,168.351761 
	C371.653564,160.405930 371.197571,160.161865 362.453674,162.213486 
	C362.623962,162.833740 362.753784,163.459396 362.965546,164.055954 
	C369.971191,183.789993 377.072906,203.490768 383.908539,223.283463 
	C385.023499,226.511932 386.983459,226.719604 390.433838,226.549515 
M596.115723,196.500000 
	C596.115723,206.409927 596.115723,216.319839 596.115723,226.314941 
	C599.671082,226.314941 602.423828,226.314941 605.826721,226.314941 
	C605.826721,207.489349 605.826721,188.957687 605.826721,169.843109 
	C612.867004,169.843109 619.264038,169.843109 625.663025,169.843109 
	C625.663025,166.810135 625.663025,164.379868 625.663025,161.780945 
	C609.019836,161.780945 592.656799,161.780945 576.223938,161.780945 
	C576.223938,164.619019 576.223938,167.052200 576.223938,170.059677 
	C582.864014,170.059677 589.263367,170.059677 596.115906,170.059677 
	C596.115906,178.919342 596.115906,187.209671 596.115723,196.500000 
M517.217102,205.489731 
	C517.217102,209.567307 517.217102,213.644882 517.217102,217.636169 
	C514.280701,217.939926 512.199280,218.155243 510.206635,218.361374 
	C510.206635,221.221436 510.206635,223.651779 510.206635,226.148041 
	C518.371460,226.148041 526.229980,226.148041 534.124023,226.148041 
	C534.124023,223.231277 534.124023,220.787796 534.124023,218.246140 
	C531.595032,218.034592 529.346741,217.846527 527.163696,217.663925 
	C527.163696,201.611435 527.163696,186.031509 527.163696,170.271881 
	C529.596252,170.098969 531.717102,169.948212 534.079102,169.780319 
	C534.079102,167.090790 534.079102,164.523773 534.079102,161.838928 
	C525.893250,161.838928 518.050842,161.838928 510.212891,161.838928 
	C510.212891,164.726578 510.212891,167.150314 510.212891,169.730682 
	C512.582153,169.943985 514.666931,170.131668 517.217407,170.361282 
	C517.217407,181.915359 517.217407,193.203735 517.217102,205.489731 
M485.560486,161.408630 
	C474.413269,161.407761 474.413269,161.407761 475.898315,169.729294 
	C478.068390,169.910904 480.309998,170.098495 482.659912,170.295151 
	C482.659912,186.268494 482.659912,201.970703 482.659912,217.737930 
	C480.089539,217.947662 477.850342,218.130371 474.202087,218.428040 
	C475.471283,221.653687 476.253235,226.090271 477.413696,226.191589 
	C484.771515,226.834076 492.213074,226.517944 499.644653,226.517944 
	C499.644653,223.353729 499.644653,220.924805 499.644653,218.291580 
	C497.141602,218.078064 494.895355,217.886444 492.520142,217.683838 
	C492.520142,201.716370 492.520142,186.018082 492.520142,170.265167 
	C495.129639,170.055283 497.381348,169.874161 499.656494,169.691162 
	C499.656494,166.828049 499.656494,164.402573 499.656494,161.409409 
	C495.110474,161.409409 490.822937,161.409409 485.560486,161.408630 
M551.701294,216.990829 
	C549.243286,217.551025 546.785278,218.111221 544.486572,218.635117 
	C544.486572,221.233047 544.486572,223.636902 544.486572,226.590637 
	C550.481445,226.590637 556.102844,226.591782 561.724182,226.590363 
	C569.528748,226.588379 569.905090,226.097107 568.014282,218.238113 
	C565.807983,218.052505 563.563904,217.863693 561.414062,217.682831 
	C561.414062,201.595856 561.414062,185.909576 561.414062,170.251938 
	C564.058167,170.028671 566.296570,169.839676 568.340454,169.667099 
	C568.340454,166.723969 568.340454,164.326416 568.340454,161.930237 
	C560.080017,161.930237 552.247070,161.930237 544.468750,161.930237 
	C544.468750,164.862305 544.468750,167.267426 544.468750,169.736008 
	C547.065857,169.953415 549.310303,170.141281 551.842957,170.353287 
	C551.842957,185.864746 551.842957,200.973892 551.701294,216.990829 
M276.322144,218.851715 
	C276.322144,221.156174 276.322144,223.460648 276.322144,226.148743 
	C284.388702,226.148743 292.263428,226.148743 300.362732,226.148743 
	C300.362732,223.336670 300.362732,220.804810 300.362732,218.243698 
	C297.739441,218.034622 295.496490,217.855850 293.281250,217.679291 
	C293.281250,201.644424 293.281250,186.068237 293.281250,170.279739 
	C295.760468,170.083694 298.005951,169.906128 300.485718,169.710037 
	C300.485718,167.033279 300.485718,164.618408 300.485718,161.834564 
	C292.365204,161.834564 284.486511,161.834564 276.531799,161.834564 
	C276.531799,164.698776 276.531799,167.235931 276.531799,169.727524 
	C279.179596,169.975311 281.417969,170.184769 283.588226,170.387863 
	C283.588226,186.412323 283.588226,201.983383 283.588226,217.735046 
	C281.187897,217.912521 279.063477,218.069611 276.322144,218.851715 
z"/>
<path fill="#5EABA5" opacity="1.000000" stroke="none" 
	d="
M834.743286,215.897919 
	C835.280701,222.898758 836.066345,229.610992 836.889343,236.641998 
	C832.844788,236.641998 829.110962,236.641998 824.670959,236.641998 
	C825.396484,231.397842 826.022400,226.507980 826.765686,221.636017 
	C827.229187,218.597778 827.307007,216.099625 824.485352,213.663879 
	C821.038940,210.688919 820.712952,205.026611 824.247192,202.566895 
	C829.978149,198.578278 828.154480,193.481354 828.142639,187.581818 
	C826.079468,188.302567 824.427795,188.755722 822.878296,189.440170 
	C807.964661,196.027435 793.094360,202.714066 778.132080,209.188278 
	C776.367798,209.951691 773.789917,210.378922 772.155640,209.665054 
	C750.203308,200.076660 728.350952,190.259323 706.480164,180.484451 
	C706.038818,180.287155 705.674377,179.917694 704.669922,179.192200 
	C710.093689,176.718048 715.137695,174.374832 720.215881,172.108322 
	C737.230713,164.514221 754.226746,156.875610 771.325500,149.474854 
	C773.157654,148.681839 775.921997,148.634430 777.737671,149.425690 
	C799.544983,158.929398 821.255554,168.655090 842.984436,178.338333 
	C843.421204,178.532990 843.774536,178.914642 844.473938,179.439606 
	C843.662109,179.911621 843.052002,180.335495 842.387817,180.642273 
	C831.991028,185.444702 831.900330,185.508682 833.141296,196.911011 
	C833.277466,198.162155 834.210083,199.615479 835.213928,200.435928 
	C841.209839,205.336487 841.190186,210.586731 834.743286,215.897919 
z"/>
<path fill="#858585" opacity="1.000000" stroke="none" 
	d="
M214.258209,220.800858 
	C214.258377,200.892822 214.258377,181.456558 214.258377,161.720001 
	C217.557327,161.720001 220.312881,161.720001 223.701889,161.720001 
	C223.701889,170.658112 223.701889,179.533081 223.701889,188.704208 
	C233.721069,188.704208 243.113953,188.704208 252.963623,188.704208 
	C252.963623,179.802994 252.963623,171.046417 252.963623,161.854477 
	C256.279602,161.854477 259.150604,161.854477 262.387115,161.854477 
	C262.387115,183.240921 262.387115,204.602249 262.387115,226.275055 
	C259.455139,226.275055 256.700531,226.275055 253.358856,226.275055 
	C253.358856,216.993698 253.358856,207.772659 253.358856,198.123993 
	C243.411743,198.123993 234.034668,198.123993 224.111084,198.123993 
	C224.111084,207.296036 224.111084,216.544327 224.111084,226.185501 
	C220.692963,226.185501 217.811401,226.185501 214.519943,226.185501 
	C214.429520,224.489441 214.343781,222.881027 214.258209,220.800858 
z"/>
<path fill="#5DABA5" opacity="1.000000" stroke="none" 
	d="
M686.006470,201.671814 
	C684.300476,217.391724 673.609802,226.225098 660.861938,226.220459 
	C653.090088,226.217621 645.318298,226.219940 637.246094,226.219940 
	C637.246094,204.705948 637.246094,183.356079 637.246094,161.025375 
	C647.219421,161.490585 657.093140,161.080170 666.651123,162.624268 
	C677.820618,164.428772 685.292603,174.419830 685.957703,186.251450 
	C686.237244,191.224121 686.019897,196.224701 686.006470,201.671814 
M661.038025,170.070755 
	C656.131531,170.070755 651.225037,170.070755 646.363770,170.070755 
	C646.363770,186.385788 646.363770,201.942932 646.363770,217.752380 
	C652.091980,217.752380 657.591309,218.261780 662.954712,217.625290 
	C669.884155,216.802963 674.752686,212.508591 675.810974,205.567749 
	C676.803223,199.059570 677.235718,192.302643 676.677612,185.760712 
	C675.888306,176.509445 671.190735,172.139755 661.038025,170.070755 
z"/>
<path fill="#818181" opacity="1.000000" stroke="none" 
	d="
M334.028137,217.985870 
	C339.522034,217.985870 344.521332,217.985489 349.520660,217.985962 
	C357.103851,217.986694 357.103851,217.986938 356.783020,226.160889 
	C342.769104,226.160889 328.736481,226.160889 314.431091,226.160889 
	C314.431091,204.706543 314.431091,183.443359 314.431091,161.811752 
	C328.404877,161.811752 342.311737,161.811752 356.839417,161.811752 
	C356.429535,164.502319 356.045502,167.023254 355.601898,169.935104 
	C345.058228,169.935104 334.786041,169.935104 324.123108,169.935104 
	C324.123108,176.388672 324.123108,182.416046 324.123108,188.936676 
	C333.505524,188.936676 342.767059,188.936676 352.371948,188.936676 
	C352.371948,191.968307 352.371948,194.516251 352.371948,197.632797 
	C342.921234,197.632797 333.672455,197.632797 324.083069,197.632797 
	C324.083069,204.585281 324.083069,210.979370 324.083069,217.985870 
	C327.298096,217.985870 330.415802,217.985870 334.028137,217.985870 
z"/>
<path fill="#818181" opacity="1.000000" stroke="none" 
	d="
M432.252838,226.555054 
	C430.338989,226.448715 428.892273,226.342819 427.430145,226.235779 
	C427.430145,204.542831 427.430145,183.278915 427.430145,161.769043 
	C441.603485,161.769043 455.495270,161.769043 469.736664,161.769043 
	C469.344055,164.551712 469.002960,166.969437 468.581390,169.957489 
	C458.070496,169.957489 447.663727,169.957489 436.991699,169.957489 
	C436.991699,176.474533 436.991699,182.397812 436.991699,188.809540 
	C446.341675,188.809540 455.606476,188.809540 465.288879,188.809540 
	C465.288879,191.834747 465.288879,194.384064 465.288879,197.505310 
	C456.047455,197.505310 446.796936,197.505310 437.134094,197.505310 
	C437.134094,204.452774 437.134094,210.856033 437.134094,217.820419 
	C447.610138,217.820419 458.202271,217.820419 469.212494,217.820419 
	C469.564575,220.874619 469.859283,223.431335 470.219421,226.555481 
	C457.328796,226.555481 445.024384,226.555481 432.252838,226.555054 
z"/>
<path fill="#808080" opacity="1.000000" stroke="none" 
	d="
M95.004883,215.845169 
	C94.386047,217.471970 93.869469,218.698105 93.390411,219.938736 
	C90.582527,227.210419 90.585487,227.211563 82.062851,226.020554 
	C85.711288,216.682663 89.314110,207.464096 92.914955,198.244781 
	C97.268112,187.099319 101.512833,175.908890 106.097725,164.859589 
	C106.718445,163.363678 109.014648,161.703674 110.583786,161.653824 
	C113.205727,161.570511 116.754349,159.774170 118.351959,163.888947 
	C126.230949,184.181992 134.135910,204.464966 142.012009,224.759140 
	C142.114090,225.022156 141.958588,225.385147 141.917175,225.700790 
	C134.162445,227.905090 133.102493,227.393417 130.205109,220.049530 
	C127.202583,212.439102 127.202560,212.439011 119.014320,212.439117 
	C112.688995,212.439209 106.352341,212.232605 100.045891,212.577759 
	C98.358055,212.670151 96.762428,214.447433 95.004883,215.845169 
M115.948662,182.562042 
	C114.676590,179.466614 113.404518,176.371170 111.738365,172.316772 
	C107.474159,183.472946 103.659241,193.453690 99.769485,203.630219 
	C108.139832,203.630219 115.814857,203.630219 123.936211,203.630219 
	C121.235329,196.561523 118.702377,189.932343 115.948662,182.562042 
z"/>
<path fill="#808080" opacity="1.000000" stroke="none" 
	d="
M176.671936,169.207275 
	C165.046112,169.577179 159.702072,174.263092 158.747849,185.374710 
	C158.238495,191.306183 158.295425,197.358749 158.828445,203.290924 
	C159.715759,213.166153 165.344604,218.496933 174.404465,218.886658 
	C184.178833,219.307083 189.621262,214.871887 191.770004,204.723679 
	C191.938507,203.927856 192.048996,203.119751 192.224579,202.094849 
	C194.929153,202.094849 197.526810,202.094849 200.095413,202.094849 
	C202.086884,213.196136 192.939194,225.543716 181.385681,226.816544 
	C171.747681,227.878357 162.846252,226.774124 155.251328,219.041550 
	C147.063507,210.705322 146.987244,177.419373 155.379913,168.797424 
	C162.929611,161.041458 175.171646,159.120850 185.424011,162.278030 
	C194.617538,165.109131 200.586548,174.310959 200.752960,184.663727 
	C200.760376,185.124313 200.508652,185.589066 200.226089,186.587143 
	C198.346191,186.587143 196.305939,186.925400 194.463623,186.467438 
	C193.248627,186.165390 191.623550,184.876144 191.368881,183.758484 
	C189.014587,173.426529 186.777390,171.042755 176.671936,169.207275 
z"/>
<path fill="#5FABA6" opacity="1.000000" stroke="none" 
	d="
M773.012207,237.731018 
	C763.430969,225.108871 751.049072,218.283203 734.252930,217.665100 
	C735.301819,211.796112 736.258179,206.444901 737.367249,200.239410 
	C740.261536,201.417252 741.898682,202.035751 743.496948,202.741974 
	C751.255066,206.169830 759.178650,209.281998 766.694885,213.178726 
	C772.063232,215.961914 776.585571,216.068466 782.067566,213.285599 
	C791.220093,208.639450 800.815613,204.866028 811.714355,200.069641 
	C812.829529,206.186325 813.803284,211.527191 814.870117,217.378754 
	C811.637512,217.763184 809.377136,217.940079 807.149414,218.312119 
	C794.216370,220.472061 783.928040,226.961639 776.102112,237.427490 
	C775.281067,238.525482 774.710266,240.581039 773.012207,237.731018 
z"/>
<path fill="#808080" opacity="1.000000" stroke="none" 
	d="
M390.015625,226.548950 
	C386.983459,226.719604 385.023499,226.511932 383.908539,223.283463 
	C377.072906,203.490768 369.971191,183.789993 362.965546,164.055954 
	C362.753784,163.459396 362.623962,162.833740 362.453674,162.213486 
	C371.197571,160.161865 371.653564,160.405930 374.425354,168.351761 
	C379.078247,181.689911 383.730347,195.028320 388.402008,208.359879 
	C388.944916,209.909180 389.609497,211.415848 390.643829,214.011993 
	C394.336243,203.553955 397.692444,194.058853 401.040649,184.560913 
	C402.974670,179.074539 404.876801,173.576874 406.827240,168.096359 
	C409.445923,160.738129 409.460022,160.743149 417.973602,161.987122 
	C415.598724,168.754776 413.274048,175.437927 410.908997,182.106735 
	C406.186951,195.421494 401.329437,208.689911 396.786896,222.065414 
	C395.640991,225.439407 394.085602,227.216171 390.015625,226.548950 
z"/>
<path fill="#63AEA8" opacity="1.000000" stroke="none" 
	d="
M596.115845,196.000000 
	C596.115906,187.209671 596.115906,178.919342 596.115906,170.059677 
	C589.263367,170.059677 582.864014,170.059677 576.223938,170.059677 
	C576.223938,167.052200 576.223938,164.619019 576.223938,161.780945 
	C592.656799,161.780945 609.019836,161.780945 625.663025,161.780945 
	C625.663025,164.379868 625.663025,166.810135 625.663025,169.843109 
	C619.264038,169.843109 612.867004,169.843109 605.826721,169.843109 
	C605.826721,188.957687 605.826721,207.489349 605.826721,226.314941 
	C602.423828,226.314941 599.671082,226.314941 596.115723,226.314941 
	C596.115723,216.319839 596.115723,206.409927 596.115845,196.000000 
z"/>
<path fill="#63ADA8" opacity="1.000000" stroke="none" 
	d="
M517.217285,204.990936 
	C517.217407,193.203735 517.217407,181.915359 517.217407,170.361282 
	C514.666931,170.131668 512.582153,169.943985 510.212891,169.730682 
	C510.212891,167.150314 510.212891,164.726578 510.212891,161.838928 
	C518.050842,161.838928 525.893250,161.838928 534.079102,161.838928 
	C534.079102,164.523773 534.079102,167.090790 534.079102,169.780319 
	C531.717102,169.948212 529.596252,170.098969 527.163696,170.271881 
	C527.163696,186.031509 527.163696,201.611435 527.163696,217.663925 
	C529.346741,217.846527 531.595032,218.034592 534.124023,218.246140 
	C534.124023,220.787796 534.124023,223.231277 534.124023,226.148041 
	C526.229980,226.148041 518.371460,226.148041 510.206635,226.148041 
	C510.206635,223.651779 510.206635,221.221436 510.206635,218.361374 
	C512.199280,218.155243 514.280701,217.939926 517.217102,217.636169 
	C517.217102,213.644882 517.217102,209.567307 517.217285,204.990936 
z"/>
<path fill="#5EABA5" opacity="1.000000" stroke="none" 
	d="
M486.047943,161.409027 
	C490.822937,161.409409 495.110474,161.409409 499.656494,161.409409 
	C499.656494,164.402573 499.656494,166.828049 499.656494,169.691162 
	C497.381348,169.874161 495.129639,170.055283 492.520142,170.265167 
	C492.520142,186.018082 492.520142,201.716370 492.520142,217.683838 
	C494.895355,217.886444 497.141602,218.078064 499.644653,218.291580 
	C499.644653,220.924805 499.644653,223.353729 499.644653,226.517944 
	C492.213074,226.517944 484.771515,226.834076 477.413696,226.191589 
	C476.253235,226.090271 475.471283,221.653687 474.202087,218.428040 
	C477.850342,218.130371 480.089539,217.947662 482.659912,217.737930 
	C482.659912,201.970703 482.659912,186.268494 482.659912,170.295151 
	C480.309998,170.098495 478.068390,169.910904 475.898315,169.729294 
	C474.413269,161.407761 474.413269,161.407761 486.047943,161.409027 
z"/>
<path fill="#5EABA5" opacity="1.000000" stroke="none" 
	d="
M551.772095,216.536926 
	C551.842957,200.973892 551.842957,185.864746 551.842957,170.353287 
	C549.310303,170.141281 547.065857,169.953415 544.468750,169.736008 
	C544.468750,167.267426 544.468750,164.862305 544.468750,161.930237 
	C552.247070,161.930237 560.080017,161.930237 568.340454,161.930237 
	C568.340454,164.326416 568.340454,166.723969 568.340454,169.667099 
	C566.296570,169.839676 564.058167,170.028671 561.414062,170.251938 
	C561.414062,185.909576 561.414062,201.595856 561.414062,217.682831 
	C563.563904,217.863693 565.807983,218.052505 568.014282,218.238113 
	C569.905090,226.097107 569.528748,226.588379 561.724182,226.590363 
	C556.102844,226.591782 550.481445,226.590637 544.486572,226.590637 
	C544.486572,223.636902 544.486572,221.233047 544.486572,218.635117 
	C546.785278,218.111221 549.243286,217.551025 551.772095,216.536926 
z"/>
<path fill="#7F7F7F" opacity="1.000000" stroke="none" 
	d="
M276.630585,218.539215 
	C279.063477,218.069611 281.187897,217.912521 283.588226,217.735046 
	C283.588226,201.983383 283.588226,186.412323 283.588226,170.387863 
	C281.417969,170.184769 279.179596,169.975311 276.531799,169.727524 
	C276.531799,167.235931 276.531799,164.698776 276.531799,161.834564 
	C284.486511,161.834564 292.365204,161.834564 300.485718,161.834564 
	C300.485718,164.618408 300.485718,167.033279 300.485718,169.710037 
	C298.005951,169.906128 295.760468,170.083694 293.281250,170.279739 
	C293.281250,186.068237 293.281250,201.644424 293.281250,217.679291 
	C295.496490,217.855850 297.739441,218.034622 300.362732,218.243698 
	C300.362732,220.804810 300.362732,223.336670 300.362732,226.148743 
	C292.263428,226.148743 284.388702,226.148743 276.322144,226.148743 
	C276.322144,223.460648 276.322144,221.156174 276.630585,218.539215 
z"/>
<path fill="#F8F9F9" opacity="1.000000" stroke="none" 
	d="
M661.480225,170.095215 
	C671.190735,172.139755 675.888306,176.509445 676.677612,185.760712 
	C677.235718,192.302643 676.803223,199.059570 675.810974,205.567749 
	C674.752686,212.508591 669.884155,216.802963 662.954712,217.625290 
	C657.591309,218.261780 652.091980,217.752380 646.363770,217.752380 
	C646.363770,201.942932 646.363770,186.385788 646.363770,170.070755 
	C651.225037,170.070755 656.131531,170.070755 661.480225,170.095215 
z"/>
<path fill="#F7F7F7" opacity="1.000000" stroke="none" 
	d="
M116.059052,182.932602 
	C118.702377,189.932343 121.235329,196.561523 123.936211,203.630219 
	C115.814857,203.630219 108.139832,203.630219 99.769485,203.630219 
	C103.659241,193.453690 107.474159,183.472946 111.738365,172.316772 
	C113.404518,176.371170 114.676590,179.466614 116.059052,182.932602 
z"/>
</svg>