<svg version="1.1" id="Layer_1" xmlns="http://www.w3.org/2000/svg" xmlns:xlink="http://www.w3.org/1999/xlink" x="0px" y="0px"
	 width="100%" viewBox="0 0 1010 670" enable-background="new 0 0 1010 670" xml:space="preserve">
<path fill="#FFFFFF" opacity="0.000000" stroke="none" 
	d="
M721.000000,671.000000 
	C480.666748,671.000000 240.833481,671.000000 1.000161,671.000000 
	C1.000107,447.666809 1.000107,224.333603 1.000054,1.000311 
	C337.666412,1.000207 674.332825,1.000207 1010.999451,1.000104 
	C1010.999634,224.333023 1010.999634,447.666046 1010.999817,670.999512 
	C914.500000,671.000000 818.000000,671.000000 721.000000,671.000000 
M613.010620,313.500000 
	C613.010620,234.414139 613.010620,155.328278 613.010620,76.247108 
	C609.495850,76.247108 606.723938,76.247108 603.420837,76.247108 
	C603.420837,78.298943 603.420959,80.095901 603.420898,81.892853 
	C603.420471,101.891800 603.402100,121.890778 603.438477,141.889664 
	C603.444092,144.964127 603.151794,147.401825 599.106140,145.736115 
	C598.323486,131.704514 593.940613,127.569679 579.868347,127.567543 
	C524.704590,127.559158 469.540833,127.548820 414.377075,127.576256 
	C401.274048,127.582771 395.942352,133.103317 396.624115,145.956482 
	C395.063843,145.956482 393.517029,145.956482 391.983459,145.956482 
	C391.575989,132.368362 386.790375,127.616959 373.733521,127.583420 
	C371.240631,127.577019 368.724396,127.645744 366.258118,127.974068 
	C359.241730,128.908157 354.251099,134.567810 354.074677,141.608871 
	C354.038971,143.033890 354.069519,144.460556 354.069519,145.794678 
	C349.131836,147.282898 349.584229,144.156738 349.583282,141.491776 
	C349.576324,121.492828 349.585358,101.493881 349.568329,81.494949 
	C349.566833,79.744270 349.414490,77.993721 349.333130,76.262894 
	C345.976807,76.262894 343.211060,76.262894 339.812439,76.262894 
	C339.812439,168.729172 339.812439,260.923157 339.812439,353.214905 
	C336.559662,353.393372 333.942719,353.536957 331.371582,353.678040 
	C331.371582,356.970856 331.371582,359.865448 331.371582,362.744385 
	C428.349640,362.744385 524.944214,362.744385 621.661621,362.744385 
	C621.661621,359.595490 621.661621,356.721710 621.661621,353.647675 
	C618.723145,353.488678 616.119385,353.347809 613.010620,353.179596 
	C613.010620,340.093536 613.010620,327.296753 613.010620,313.500000 
M205.663635,440.178955 
	C196.549744,441.893768 187.435852,443.608612 177.908630,445.401215 
	C178.489609,448.831390 179.000336,451.846802 179.494354,454.763611 
	C183.855316,454.763611 187.682510,454.932373 191.486588,454.708466 
	C194.358398,454.539429 195.647537,455.388123 196.102493,458.408569 
	C197.142517,465.313385 198.625885,472.150330 199.852371,479.028503 
	C201.122131,486.149353 202.301193,493.286377 203.576630,500.748077 
	C183.428406,504.416870 164.043671,507.946655 144.297897,511.542206 
	C142.145706,500.052917 140.637344,489.160889 137.950989,478.567627 
	C135.841873,470.250580 136.742889,464.253693 145.575256,461.150330 
	C146.637222,460.777161 147.466766,459.789215 148.482498,459.228210 
	C150.863586,457.913116 151.648193,456.288818 150.673141,453.490479 
	C149.545975,450.255493 147.303589,450.822540 145.031937,451.240295 
	C135.051620,453.075684 125.086639,454.994232 115.109070,456.844788 
	C108.141068,458.137146 101.161697,459.368195 93.810966,460.694519 
	C94.415581,464.291901 94.925827,467.327789 95.467125,470.548401 
	C99.690552,470.346130 103.497932,470.289246 107.278580,469.941620 
	C110.112457,469.681061 111.464554,470.558258 111.998871,473.528168 
	C117.888962,506.267334 123.870308,538.990173 129.907135,571.702637 
	C130.439667,574.588318 129.650436,576.326111 127.116699,577.826660 
	C122.986671,580.272522 119.066246,583.072327 114.778275,585.907349 
	C115.669769,588.089172 116.454155,590.008850 117.315010,592.115662 
	C137.102921,588.498047 156.495682,584.952637 176.349762,581.322937 
	C175.761261,577.723389 175.264664,574.686035 174.787766,571.769165 
	C168.064178,571.769165 161.815063,571.769165 155.239838,571.769165 
	C152.545288,557.023743 149.864334,542.352783 147.119507,527.332275 
	C167.019150,523.716003 186.591705,520.159180 206.624039,516.518799 
	C209.182678,530.636169 211.721542,544.172485 213.958588,557.758423 
	C214.169327,559.038208 212.823364,561.088928 211.611801,561.994568 
	C207.527328,565.047546 203.177261,567.745300 198.811554,570.657043 
	C199.776703,572.899475 200.548782,574.693237 201.440186,576.764282 
	C221.186615,573.139343 240.693634,569.558350 260.517609,565.919189 
	C259.859375,562.130188 259.357208,559.239746 258.792999,555.991943 
	C252.139267,556.361572 245.900223,556.708191 239.467880,557.065552 
	C237.380936,545.754822 235.381973,534.988770 233.409698,524.217834 
	C229.275513,501.640381 225.198212,479.052368 220.983368,456.490021 
	C220.349548,453.097198 221.076874,450.972626 224.261597,449.226105 
	C228.309113,447.006439 232.023376,444.179077 235.988983,441.542114 
	C235.033295,439.158203 234.251892,437.209015 233.451874,435.213409 
	C224.175461,436.885162 215.347061,438.476166 205.663635,440.178955 
M377.082520,533.544800 
	C385.838531,518.244507 387.130402,501.748688 384.952240,484.681061 
	C380.353455,448.645325 353.707458,419.332306 313.827271,422.988647 
	C295.549988,424.664337 280.803558,432.654327 269.991699,447.554657 
	C256.094208,466.707397 254.537796,488.175903 258.787964,510.527039 
	C262.374268,529.386719 271.828766,544.586243 288.238983,555.000793 
	C314.618622,571.742249 358.612427,566.200867 377.082520,533.544800 
M685.742737,429.930328 
	C672.721436,428.406677 659.700195,426.883026 646.053223,425.286133 
	C645.638000,428.908539 645.259521,432.210358 644.888428,435.447662 
	C650.047424,436.649719 654.383362,437.660004 658.715942,438.669525 
	C658.799561,439.663788 658.967041,440.330536 658.893372,440.969452 
	C655.367493,471.536774 651.212524,502.049988 648.609375,532.695129 
	C647.710205,543.280762 644.248718,548.724854 633.846497,549.663330 
	C628.226318,550.170471 628.261719,553.527100 629.807617,557.859497 
	C650.555237,560.233398 671.208557,562.587952 691.859497,564.962769 
	C702.599060,566.197693 713.323914,567.578491 724.081848,568.620117 
	C725.992981,568.805115 729.567749,567.997559 729.782227,567.057190 
	C732.462036,555.308044 734.663269,543.449768 737.035034,531.377075 
	C732.749023,530.487671 729.809509,529.999512 726.938660,529.248779 
	C723.860107,528.443848 722.020386,529.165222 720.904846,532.410400 
	C719.231018,537.279663 717.301880,542.089417 715.046387,546.712280 
	C714.417419,548.001404 712.236389,549.337402 710.801819,549.300842 
	C700.485535,549.037842 690.176025,548.463623 679.869202,547.900391 
	C677.287292,547.759216 674.722839,547.297852 671.883667,546.951050 
	C673.581299,532.243835 675.212891,518.108215 676.915283,503.359741 
	C692.261719,505.674744 706.921448,507.886169 721.828735,510.134918 
	C722.605103,503.471130 723.291626,497.578827 724.040283,491.152893 
	C708.710083,490.609680 693.870300,490.083832 678.453430,489.537537 
	C680.244812,473.915833 681.954468,459.006836 683.712341,443.677734 
	C696.829041,446.052643 709.090027,448.181946 721.285583,450.636444 
	C722.373047,450.855316 723.699402,453.149414 723.777222,454.543243 
	C724.071106,459.806976 723.895203,465.096954 723.895203,470.514740 
	C728.443359,471.076141 732.040039,471.653137 735.658691,471.884705 
	C736.725891,471.952972 738.621155,471.276886 738.841797,470.549194 
	C742.163147,459.596893 744.762146,448.495331 745.037781,436.576935 
	C725.257141,434.347198 705.949707,432.170807 685.742737,429.930328 
M454.102600,431.102142 
	C456.176208,431.714233 458.223755,432.442352 460.328674,432.914948 
	C465.105835,433.987518 467.576477,436.675385 468.156830,441.748444 
	C468.734009,446.793793 470.222351,451.734863 471.278381,456.571655 
	C476.068604,456.571655 480.337585,456.571655 485.918549,456.571655 
	C486.246552,445.002350 486.651367,433.744843 486.738617,422.484833 
	C486.746429,421.474426 484.846130,419.835754 483.581451,419.532135 
	C477.121582,417.981079 470.635193,416.235931 464.054840,415.552582 
	C448.819733,413.970551 433.793060,414.407990 419.835938,422.161591 
	C406.305573,429.678070 399.061096,442.829346 400.914368,457.776581 
	C402.777222,472.801025 412.791840,481.449097 425.330658,487.792664 
	C434.537140,492.450287 444.028870,496.545258 453.220978,501.229523 
	C457.181396,503.247803 461.091980,505.701294 464.348694,508.693390 
	C471.344910,515.121277 472.575073,526.650696 466.825073,534.183655 
	C464.584869,537.118408 460.807098,540.206177 457.386810,540.664307 
	C447.192047,542.029907 437.104736,540.234192 427.719147,535.832825 
	C425.907501,534.983276 424.153473,532.863342 423.486084,530.942627 
	C421.688873,525.770569 420.519287,520.382324 419.052643,515.093140 
	C416.719116,506.677246 416.719147,506.902466 408.009766,507.551453 
	C404.512146,507.812073 403.428558,509.355774 403.222412,512.389648 
	C402.872650,517.537231 402.210938,522.676147 402.118286,527.826538 
	C401.783661,546.424011 402.461945,547.561890 420.424744,552.465759 
	C439.321930,557.624756 458.124390,559.079041 476.152527,548.921936 
	C495.399597,538.078125 501.264038,513.698181 488.915070,495.405273 
	C483.890778,487.962616 476.577271,483.334656 468.722290,479.543152 
	C458.980194,474.840759 448.886780,470.822540 439.367706,465.720459 
	C434.693420,463.215118 430.172699,459.529358 427.015594,455.306396 
	C422.765228,449.621155 424.027832,442.861115 427.189362,436.834564 
	C430.002533,431.472076 434.684814,429.144470 440.853058,429.898926 
	C444.971313,430.402618 449.122620,430.635742 454.102600,431.102142 
M612.797119,444.019806 
	C613.119568,449.469940 613.442017,454.920044 613.784241,460.704834 
	C618.799805,460.704834 623.214050,460.704834 628.465027,460.704834 
	C629.914490,448.111115 631.349609,435.641907 632.784851,423.172211 
	C591.072388,421.169037 550.559204,419.223419 509.250885,417.239624 
	C509.250885,426.502350 508.941803,435.624756 509.330780,444.717316 
	C509.795044,455.569580 510.053772,455.562836 520.770142,456.173401 
	C521.739258,456.228607 522.714233,456.180756 524.173828,456.180756 
	C525.141846,450.245300 525.964233,444.343933 527.142212,438.514404 
	C527.485718,436.814667 528.791443,433.976562 529.743958,433.939850 
	C538.818115,433.590088 547.911194,433.731110 557.249817,433.731110 
	C557.249817,435.749847 557.321045,437.564178 557.239197,439.371582 
	C555.853210,469.979889 554.262146,500.580933 553.210815,531.200562 
	C553.010498,537.034729 552.002625,540.532776 545.643188,541.400513 
	C542.244080,541.864441 539.007202,543.517822 535.697144,544.634399 
	C530.140808,546.508728 529.969116,546.977966 532.836670,552.853638 
	C554.647766,553.895020 576.549622,554.940796 598.676636,555.997253 
	C598.882324,554.025513 598.802734,552.499451 599.228149,551.130188 
	C600.637817,546.592346 598.498657,545.275818 594.372742,544.920898 
	C590.577332,544.594421 586.854980,543.474609 583.061829,543.047852 
	C579.117371,542.604065 577.537781,541.228699 577.768433,536.758240 
	C579.416077,504.829132 580.723694,472.882599 582.182556,440.943573 
	C582.271057,439.006104 582.729065,437.085480 583.100830,434.579254 
	C590.883362,435.376984 598.278320,436.508881 605.702942,436.759888 
	C610.370728,436.917664 612.979614,438.106689 612.797119,444.019806 
M781.790771,465.142303 
	C776.559387,492.921173 771.284058,520.691833 766.116211,548.482544 
	C763.716003,561.389954 763.839905,561.567017 750.665527,563.972778 
	C745.812927,564.858765 743.981323,566.867432 745.826721,571.745483 
	C746.856079,572.052795 747.946533,572.488281 749.078796,572.700378 
	C781.112732,578.699768 813.157410,584.641846 845.177002,590.716309 
	C848.044739,591.260315 849.123291,590.161804 849.767883,587.731201 
	C852.154297,578.733887 854.677734,569.771606 856.945312,560.744751 
	C857.938293,556.792175 858.438416,552.715820 859.199463,548.489136 
	C854.064270,547.181030 849.606934,546.045654 844.915710,544.850647 
	C841.627563,551.944153 838.344177,558.657654 835.412048,565.521118 
	C834.103943,568.583069 832.551392,569.767273 829.047180,569.283447 
	C817.350098,567.668152 805.619202,566.249268 793.867188,565.105469 
	C789.723816,564.702271 788.619995,563.619141 789.466675,559.240662 
	C794.865051,531.324341 800.363708,503.413391 804.873962,475.347107 
	C806.444519,465.573853 809.323730,459.409943 820.244507,459.396576 
	C825.109375,459.390625 827.469482,456.649994 825.371155,451.063019 
	C807.393616,447.708466 789.157959,444.305725 770.702087,440.861908 
	C770.302551,442.393555 770.128723,443.532043 769.712646,444.573792 
	C767.895813,449.123322 769.192444,451.669250 774.183960,452.601196 
	C777.223145,453.168610 780.121155,454.492493 783.296265,455.547607 
	C782.794495,458.742828 782.358826,461.517181 781.790771,465.142303 
z"/>
<path fill="#808080" opacity="1.000000" stroke="none" 
	d="
M613.010620,314.000000 
	C613.010620,327.296753 613.010620,340.093536 613.010620,353.179596 
	C616.119385,353.347809 618.723145,353.488678 621.661621,353.647675 
	C621.661621,356.721710 621.661621,359.595490 621.661621,362.744385 
	C524.944214,362.744385 428.349640,362.744385 331.371582,362.744385 
	C331.371582,359.865448 331.371582,356.970856 331.371582,353.678040 
	C333.942719,353.536957 336.559662,353.393372 339.812439,353.214905 
	C339.812439,260.923157 339.812439,168.729172 339.812439,76.262894 
	C343.211060,76.262894 345.976807,76.262894 349.333130,76.262894 
	C349.414490,77.993721 349.566833,79.744270 349.568329,81.494949 
	C349.585358,101.493881 349.576324,121.492828 349.583282,141.491776 
	C349.584229,144.156738 349.131836,147.282898 354.069519,145.794678 
	C354.069519,144.460556 354.038971,143.033890 354.074677,141.608871 
	C354.251099,134.567810 359.241730,128.908157 366.258118,127.974068 
	C368.724396,127.645744 371.240631,127.577019 373.733521,127.583420 
	C386.790375,127.616959 391.575989,132.368362 391.983459,145.956482 
	C393.517029,145.956482 395.063843,145.956482 396.624115,145.956482 
	C395.942352,133.103317 401.274048,127.582771 414.377075,127.576256 
	C469.540833,127.548820 524.704590,127.559158 579.868347,127.567543 
	C593.940613,127.569679 598.323486,131.704514 599.106140,145.736115 
	C603.151794,147.401825 603.444092,144.964127 603.438477,141.889664 
	C603.402100,121.890778 603.420471,101.891800 603.420898,81.892853 
	C603.420959,80.095901 603.420837,78.298943 603.420837,76.247108 
	C606.723938,76.247108 609.495850,76.247108 613.010620,76.247108 
	C613.010620,155.328278 613.010620,234.414139 613.010620,314.000000 
M464.500000,174.866226 
	C426.291382,174.866226 388.082733,174.866226 349.587738,174.866226 
	C349.587738,208.936050 349.576294,242.073425 349.603058,275.210754 
	C349.606171,279.089050 351.872253,278.265076 353.478149,277.725861 
	C354.256378,273.882294 354.387512,270.453979 355.659302,267.520172 
	C358.489990,260.990082 364.349213,259.343903 370.904266,259.299042 
	C378.330566,259.248260 386.062775,258.908142 389.916809,267.008453 
	C391.449310,270.229401 391.578064,274.118256 392.381653,277.869934 
	C393.468414,277.869934 395.062561,277.869934 397.124786,277.869934 
	C395.281921,271.222748 396.976013,265.277527 402.517151,262.414490 
	C407.553375,259.812317 413.739716,259.435974 420.006531,257.937958 
	C420.006531,252.821487 419.888123,247.018814 420.032501,241.222656 
	C420.292480,230.783188 427.337372,221.347214 437.198608,218.411957 
	C440.375946,217.466187 443.761597,217.220215 447.367493,216.599823 
	C437.108704,211.304871 432.418671,203.177383 434.394257,194.567017 
	C436.370148,185.955505 443.894257,179.685089 452.600952,179.394028 
	C460.856873,179.118027 468.686005,185.015213 471.172089,193.382538 
	C473.847321,202.386566 469.766479,210.148773 458.680573,216.846161 
	C459.506592,216.930771 460.119965,217.003021 460.735046,217.055206 
	C477.102631,218.444107 485.946533,228.084488 485.965088,244.565048 
	C485.970459,249.339142 485.965912,254.113235 485.965912,258.875305 
	C495.674530,258.875305 504.709015,258.875305 513.724976,258.875305 
	C513.724976,230.718185 513.724976,202.990677 513.724976,174.866104 
	C497.422607,174.866104 481.461304,174.866104 464.500000,174.866226 
M395.500000,353.728912 
	C434.902496,353.728912 474.304993,353.728912 513.787720,353.728912 
	C513.787720,337.762939 513.787720,322.511810 513.787720,306.999420 
	C506.120941,306.999420 498.739990,306.999420 490.760132,306.999420 
	C490.760132,313.916931 490.894714,320.532257 490.724426,327.139679 
	C490.531708,334.617493 485.479980,339.434570 478.381012,339.236755 
	C471.789185,339.053101 467.166565,334.224609 467.060608,327.187073 
	C466.959015,320.439819 467.038605,313.689880 467.038605,307.003967 
	C457.279694,307.003967 448.359558,307.003967 438.925293,307.003967 
	C438.925293,313.935883 439.016418,320.557709 438.901428,327.175903 
	C438.768799,334.806427 433.536163,339.629761 426.079681,339.202057 
	C419.707031,338.836578 415.314331,333.859009 415.206726,326.653412 
	C415.108551,320.080475 415.185883,313.504913 415.185883,306.941254 
	C392.827271,306.941254 371.389282,306.941254 349.662170,306.941254 
	C349.522888,308.458649 349.304352,309.747955 349.301697,311.037720 
	C349.275787,323.692841 349.415527,336.350189 349.205933,349.001923 
	C349.143707,352.759796 350.322174,353.859650 354.037872,353.805756 
	C367.522797,353.610077 381.012238,353.728546 395.500000,353.728912 
M429.278290,323.290161 
	C429.278351,310.126648 429.285339,296.963135 429.272034,283.799622 
	C429.269653,281.444489 429.100098,279.502228 432.317413,278.546753 
	C444.406952,274.956573 456.410889,271.981842 468.761353,277.346466 
	C469.514801,277.673737 470.352264,277.882233 471.169983,277.974396 
	C475.275116,278.436737 476.899780,280.296173 476.784393,284.792816 
	C476.438171,298.280640 476.596069,311.783783 476.750946,325.278748 
	C476.768250,326.786682 478.028259,328.280365 478.711975,329.780640 
	C479.510162,328.237976 480.983582,326.703156 481.001648,325.151367 
	C481.176361,310.157043 481.046204,295.159424 481.162781,280.163940 
	C481.183594,277.487457 480.470673,275.921021 477.906769,274.808319 
	C473.637695,272.955597 469.481689,270.809875 465.415344,268.541473 
	C464.136993,267.828369 462.437592,266.354950 462.398224,265.180359 
	C462.131866,257.234802 462.259155,249.276031 462.259155,241.150848 
	C465.718689,241.150848 468.593597,241.150848 471.895416,241.150848 
	C471.895416,247.157730 471.688019,252.805389 472.024445,258.420471 
	C472.122681,260.059479 473.770905,261.605621 474.708649,263.194366 
	C475.189606,262.937683 475.670563,262.681030 476.151520,262.424347 
	C476.151520,254.792084 476.516022,247.137146 476.043182,239.534286 
	C475.618622,232.708435 469.681122,227.262161 462.717957,226.913757 
	C456.239349,226.589615 449.721710,226.617157 443.239990,226.907440 
	C437.057709,227.184311 431.131287,231.577576 430.330109,237.576767 
	C429.225220,245.849884 429.370270,254.289932 428.937439,263.569031 
	C431.191711,262.553314 433.029419,262.177704 433.080780,261.633453 
	C433.725494,254.803101 434.111877,247.948364 434.567047,241.059998 
	C437.581451,241.059998 440.350983,241.059998 443.706940,241.059998 
	C443.706940,244.131500 443.743896,246.922745 443.699158,249.712677 
	C443.608643,255.357712 445.363556,262.153015 442.824402,266.322174 
	C440.297363,270.471375 433.541138,272.201660 428.441711,274.566498 
	C425.541138,275.911652 424.751892,277.663422 424.783112,280.710297 
	C424.933350,295.371857 424.848877,310.035828 424.854797,324.698944 
	C424.855225,325.697388 424.686005,326.779144 425.012177,327.669617 
	C425.307983,328.477020 426.373596,329.745850 426.747070,329.633942 
	C427.658752,329.360809 428.706573,328.548645 429.067047,327.688416 
	C429.488129,326.683533 429.237701,325.397186 429.278290,323.290161 
M603.720215,239.500015 
	C603.720215,218.072052 603.720215,196.644089 603.720215,175.230988 
	C597.038818,175.230988 591.132446,175.230988 585.231079,175.230988 
	C585.231079,209.665100 585.231079,243.725388 585.231079,277.784821 
	C591.501343,277.784821 597.390686,277.784821 603.719849,277.784821 
	C603.719849,265.103485 603.719849,252.801758 603.720215,239.500015 
M503.500000,146.689301 
	C529.658752,146.688660 555.817505,146.707703 581.976135,146.663376 
	C585.378845,146.657608 589.281189,146.451019 589.315002,141.878784 
	C589.348572,137.332260 585.600037,137.042572 582.093140,137.032532 
	C581.426697,137.030624 580.760193,137.031693 580.093750,137.031677 
	C525.110535,137.031647 470.127319,137.014725 415.144165,137.068542 
	C411.360138,137.072250 406.038788,135.912354 406.179352,141.966766 
	C406.305908,147.417175 411.299957,146.656448 415.026764,146.662598 
	C444.184448,146.710770 473.342255,146.689011 503.500000,146.689301 
M460.500000,165.189697 
	C478.237823,165.189697 495.975616,165.189697 513.687805,165.189697 
	C513.687805,161.707535 513.687805,158.989227 513.687805,156.241425 
	C458.932251,156.241425 404.555420,156.241425 349.916931,156.241425 
	C349.916931,159.219711 349.916931,161.926910 349.916931,165.189926 
	C386.667786,165.189926 423.083893,165.189926 460.500000,165.189697 
M603.372375,352.754456 
	C603.486877,338.283234 603.650391,323.811829 603.607300,309.341095 
	C603.604370,308.362274 602.085083,306.587555 601.202576,306.543182 
	C595.928040,306.277832 590.633484,306.411774 585.148499,306.411774 
	C585.148499,322.381195 585.148499,337.774170 585.148499,353.384552 
	C591.205383,353.384552 596.973694,353.384552 603.372375,352.754456 
M359.526611,287.832581 
	C356.410461,287.832581 353.294312,287.832581 349.910492,287.832581 
	C349.910492,291.139557 349.910492,293.844574 349.910492,296.695496 
	C371.773865,296.695496 393.302643,296.695496 414.775452,296.695496 
	C414.775452,293.610016 414.775452,290.887909 414.775452,287.832397 
	C396.421936,287.832397 378.469940,287.832397 359.526611,287.832581 
M541.501953,240.800644 
	C552.602478,240.800644 563.703003,240.800644 574.794312,240.800644 
	C574.794312,237.212769 574.794312,234.332687 574.794312,231.366882 
	C557.618286,231.366882 540.872925,231.366882 523.942688,231.366882 
	C523.736694,232.545486 523.469299,233.495667 523.419067,234.457199 
	C523.090149,240.755966 523.139465,240.793839 529.514832,240.800049 
	C533.177612,240.803619 536.840393,240.800507 541.501953,240.800644 
M523.492737,220.028244 
	C524.979980,220.657501 526.460632,221.814056 527.955444,221.832626 
	C539.953125,221.981796 551.953369,221.916153 563.952881,221.916199 
	C567.564514,221.916214 571.176086,221.916214 574.791260,221.916214 
	C574.791260,218.364777 574.791260,215.489136 574.791260,212.230438 
	C559.720520,212.230438 545.080078,212.229965 530.439636,212.230652 
	C523.379211,212.230972 523.379211,212.231964 523.492737,220.028244 
M535.529053,344.079071 
	C531.734985,344.079071 527.940979,344.079071 524.275635,344.079071 
	C522.017517,352.966553 522.606567,353.762543 530.971619,353.762726 
	C542.458740,353.763000 553.945862,353.762817 565.432983,353.762817 
	C568.544373,353.762817 571.655762,353.762817 574.811035,353.762817 
	C574.811035,350.200439 574.811035,347.321106 574.811035,344.079132 
	C561.773926,344.079132 549.146606,344.079132 535.529053,344.079071 
M544.500244,325.193146 
	C539.005493,325.193176 533.496887,325.431549 528.020630,325.113068 
	C524.091858,324.884644 522.926392,326.481812 523.382935,330.039124 
	C523.568359,331.483276 523.628906,332.943451 523.759583,334.561920 
	C541.007324,334.561920 557.885986,334.561920 574.805298,334.561920 
	C574.805298,331.344299 574.805298,328.467102 574.805298,325.193390 
	C564.761658,325.193390 555.130859,325.193390 544.500244,325.193146 
M559.496582,315.964752 
	C564.592346,315.964752 569.688049,315.964752 574.836548,315.964752 
	C574.836548,312.600159 574.836548,309.876892 574.836548,307.145203 
	C557.657837,307.145203 540.843689,307.145203 523.991699,307.145203 
	C523.991699,310.202759 523.991699,312.801971 523.991699,315.964691 
	C535.663574,315.964691 547.080872,315.964691 559.496582,315.964752 
M523.730774,160.520584 
	C523.851257,161.946777 523.971741,163.372955 524.086853,164.735840 
	C541.320496,164.735840 558.135376,164.735840 574.912659,164.735840 
	C574.912659,161.684250 574.912659,159.087906 574.912659,155.986359 
	C558.566833,155.986359 542.496277,155.927887 526.429382,156.139069 
	C525.515320,156.151093 524.630310,158.370804 523.730774,160.520584 
M546.500000,297.047211 
	C555.913025,297.047211 565.325989,297.047211 574.848999,297.047211 
	C574.848999,293.714661 574.848999,291.002563 574.848999,288.244812 
	C557.680176,288.244812 540.859619,288.244812 523.983276,288.244812 
	C523.983276,291.255402 523.983276,293.855347 523.983276,297.047272 
	C531.315002,297.047272 538.407532,297.047272 546.500000,297.047211 
M572.320984,278.150848 
	C578.401917,276.622192 573.741272,272.319489 575.216003,269.314392 
	C557.736023,269.314392 540.902527,269.314392 524.156372,269.314392 
	C524.156372,272.397552 524.156372,275.111237 524.156372,278.157349 
	C540.170227,278.157349 555.760742,278.157349 572.320984,278.150848 
M541.500977,259.303345 
	C552.568542,259.303345 563.636108,259.303345 574.865479,259.303345 
	C574.865479,255.891861 574.865479,253.179398 574.865479,250.410629 
	C557.697266,250.410629 540.863342,250.410629 524.169373,250.410629 
	C524.169373,253.520859 524.169373,256.242401 524.169373,259.303802 
	C529.905518,259.303802 535.203491,259.303802 541.500977,259.303345 
M563.485840,193.737076 
	C550.418274,193.737076 537.350708,193.737076 524.045898,193.737076 
	C524.045898,197.097076 524.045898,199.807281 524.045898,202.632736 
	C541.203796,202.632736 558.044250,202.632736 574.787354,202.632736 
	C574.787354,199.540176 574.787354,196.818573 574.787354,193.736725 
	C571.082886,193.736725 567.781982,193.736725 563.485840,193.737076 
M564.479004,184.069672 
	C567.910828,184.069672 571.342712,184.069672 574.831055,184.069672 
	C574.831055,180.702606 574.831055,177.990601 574.831055,175.290375 
	C557.645508,175.290375 540.826477,175.290375 524.005920,175.290375 
	C524.005920,178.310379 524.005920,180.907486 524.005920,184.069748 
	C537.342957,184.069748 550.413208,184.069748 564.479004,184.069672 
M467.031555,289.823517 
	C466.105499,288.548004 465.327515,287.113800 464.196075,286.058472 
	C463.551605,285.457336 462.283844,285.583435 461.375641,285.196716 
	C454.613037,282.317474 448.030701,283.975403 441.541016,286.116394 
	C440.470673,286.469452 439.220947,287.946564 439.059753,289.050934 
	C438.690613,291.580261 438.942993,294.200317 438.942993,296.629272 
	C448.761780,296.629272 457.804474,296.629272 467.033112,296.629272 
	C467.033112,294.383301 467.033112,292.558014 467.031555,289.823517 
M443.858734,200.098007 
	C445.850800,205.402191 449.136963,207.924576 453.590698,207.568024 
	C457.996796,207.215286 461.500793,204.045761 462.122070,199.850998 
	C462.935638,194.357681 459.156921,189.458908 453.759369,189.009399 
	C448.023407,188.531708 444.094788,192.564575 443.858734,200.098007 
M490.770721,273.931183 
	C490.986938,275.715668 489.969604,278.178345 493.313049,278.155090 
	C500.048981,278.108185 506.785492,278.141113 513.789917,278.141113 
	C513.789917,274.907043 513.789917,272.196228 513.789917,269.217957 
	C505.563507,269.217957 497.580841,269.217957 489.609253,269.217957 
	C490.024628,270.605408 490.393707,271.838318 490.770721,273.931183 
M511.270203,297.042419 
	C517.314087,295.446075 512.563721,291.177551 514.108337,288.156006 
	C506.045746,288.156006 498.660706,288.156006 491.115662,288.156006 
	C491.115662,291.192352 491.115662,293.903412 491.115662,297.046661 
	C497.737946,297.046661 504.024567,297.046661 511.270203,297.042419 
M589.612915,287.824493 
	C588.170898,287.928528 586.728882,288.032562 585.202820,288.142670 
	C585.202820,291.218414 585.202820,293.936890 585.202820,296.734802 
	C591.444031,296.734802 597.337646,296.734802 603.358887,296.734802 
	C603.358887,293.678650 603.358887,290.953827 603.358887,287.824158 
	C598.863953,287.824158 594.725525,287.824158 589.612915,287.824493 
M585.765137,164.968155 
	C591.543945,164.968155 597.322693,164.968155 603.407043,164.968155 
	C603.407043,161.931885 603.407043,159.206146 603.407043,156.222778 
	C597.219604,156.222778 591.316956,156.222778 585.089478,156.222778 
	C585.089478,159.081696 585.089478,161.687332 585.765137,164.968155 
M380.963318,138.539902 
	C376.430817,138.137772 371.883728,137.378693 367.375183,137.562912 
	C366.112732,137.614517 364.162750,140.375076 364.019012,142.022980 
	C363.906250,143.316208 365.876404,145.683289 367.299835,146.033264 
	C370.295959,146.769897 373.560333,146.782944 376.678802,146.569458 
	C381.524048,146.237778 382.628143,144.325165 380.963318,138.539902 
M369.815063,278.162598 
	C372.305969,278.152405 374.997131,278.723480 377.226990,277.955414 
	C379.147736,277.293793 380.542816,275.106049 382.170319,273.593079 
	C380.553314,272.057678 379.176025,269.840607 377.256439,269.165619 
	C375.035706,268.384705 372.192719,268.446655 369.888641,269.096100 
	C367.687347,269.716583 364.668518,271.173218 364.073822,272.952454 
	C362.955872,276.297150 365.585907,277.960754 369.815063,278.162598 
M415.178894,275.626984 
	C415.566620,273.439392 415.954376,271.251831 416.362793,268.947510 
	C414.911591,268.947510 413.107422,268.522888 411.648468,269.051300 
	C409.672729,269.766907 407.378571,270.852295 406.365570,272.487854 
	C405.798309,273.403809 407.237549,276.924835 408.309570,277.203003 
	C410.382965,277.740997 412.836273,276.814850 415.178894,275.626984 
z"/>
<path fill="#5EABA5" opacity="1.000000" stroke="none" 
	d="
M206.091141,440.123077 
	C215.347061,438.476166 224.175461,436.885162 233.451874,435.213409 
	C234.251892,437.209015 235.033295,439.158203 235.988983,441.542114 
	C232.023376,444.179077 228.309113,447.006439 224.261597,449.226105 
	C221.076874,450.972626 220.349548,453.097198 220.983368,456.490021 
	C225.198212,479.052368 229.275513,501.640381 233.409698,524.217834 
	C235.381973,534.988770 237.380936,545.754822 239.467880,557.065552 
	C245.900223,556.708191 252.139267,556.361572 258.792999,555.991943 
	C259.357208,559.239746 259.859375,562.130188 260.517609,565.919189 
	C240.693634,569.558350 221.186615,573.139343 201.440186,576.764282 
	C200.548782,574.693237 199.776703,572.899475 198.811554,570.657043 
	C203.177261,567.745300 207.527328,565.047546 211.611801,561.994568 
	C212.823364,561.088928 214.169327,559.038208 213.958588,557.758423 
	C211.721542,544.172485 209.182678,530.636169 206.624039,516.518799 
	C186.591705,520.159180 167.019150,523.716003 147.119507,527.332275 
	C149.864334,542.352783 152.545288,557.023743 155.239838,571.769165 
	C161.815063,571.769165 168.064178,571.769165 174.787766,571.769165 
	C175.264664,574.686035 175.761261,577.723389 176.349762,581.322937 
	C156.495682,584.952637 137.102921,588.498047 117.315010,592.115662 
	C116.454155,590.008850 115.669769,588.089172 114.778275,585.907349 
	C119.066246,583.072327 122.986671,580.272522 127.116699,577.826660 
	C129.650436,576.326111 130.439667,574.588318 129.907135,571.702637 
	C123.870308,538.990173 117.888962,506.267334 111.998871,473.528168 
	C111.464554,470.558258 110.112457,469.681061 107.278580,469.941620 
	C103.497932,470.289246 99.690552,470.346130 95.467125,470.548401 
	C94.925827,467.327789 94.415581,464.291901 93.810966,460.694519 
	C101.161697,459.368195 108.141068,458.137146 115.109070,456.844788 
	C125.086639,454.994232 135.051620,453.075684 145.031937,451.240295 
	C147.303589,450.822540 149.545975,450.255493 150.673141,453.490479 
	C151.648193,456.288818 150.863586,457.913116 148.482498,459.228210 
	C147.466766,459.789215 146.637222,460.777161 145.575256,461.150330 
	C136.742889,464.253693 135.841873,470.250580 137.950989,478.567627 
	C140.637344,489.160889 142.145706,500.052917 144.297897,511.542206 
	C164.043671,507.946655 183.428406,504.416870 203.576630,500.748077 
	C202.301193,493.286377 201.122131,486.149353 199.852371,479.028503 
	C198.625885,472.150330 197.142517,465.313385 196.102493,458.408569 
	C195.647537,455.388123 194.358398,454.539429 191.486588,454.708466 
	C187.682510,454.932373 183.855316,454.763611 179.494354,454.763611 
	C179.000336,451.846802 178.489609,448.831390 177.908630,445.401215 
	C187.435852,443.608612 196.549744,441.893768 206.091141,440.123077 
z"/>
<path fill="#5EABA5" opacity="1.000000" stroke="none" 
	d="
M376.911682,533.868286 
	C358.612427,566.200867 314.618622,571.742249 288.238983,555.000793 
	C271.828766,544.586243 262.374268,529.386719 258.787964,510.527039 
	C254.537796,488.175903 256.094208,466.707397 269.991699,447.554657 
	C280.803558,432.654327 295.549988,424.664337 313.827271,422.988647 
	C353.707458,419.332306 380.353455,448.645325 384.952240,484.681061 
	C387.130402,501.748688 385.838531,518.244507 376.911682,533.868286 
M306.927979,541.650146 
	C315.468811,547.414734 324.811188,547.650696 334.719269,546.580688 
	C343.724030,545.608215 348.930847,540.669006 352.140167,532.984863 
	C363.006775,506.966949 360.992706,481.700104 347.112732,457.335449 
	C343.415771,450.845856 338.076447,445.808929 331.319214,442.469910 
	C320.161285,436.956299 308.912750,438.079498 298.055023,443.014008 
	C290.137848,446.612122 288.017090,454.662079 286.006287,462.185272 
	C280.861664,481.433167 282.176331,500.506836 289.250153,519.026794 
	C292.669006,527.977783 297.988007,535.868408 306.927979,541.650146 
z"/>
<path fill="#5EABA5" opacity="1.000000" stroke="none" 
	d="
M686.192505,429.962372 
	C705.949707,432.170807 725.257141,434.347198 745.037781,436.576935 
	C744.762146,448.495331 742.163147,459.596893 738.841797,470.549194 
	C738.621155,471.276886 736.725891,471.952972 735.658691,471.884705 
	C732.040039,471.653137 728.443359,471.076141 723.895203,470.514740 
	C723.895203,465.096954 724.071106,459.806976 723.777222,454.543243 
	C723.699402,453.149414 722.373047,450.855316 721.285583,450.636444 
	C709.090027,448.181946 696.829041,446.052643 683.712341,443.677734 
	C681.954468,459.006836 680.244812,473.915833 678.453430,489.537537 
	C693.870300,490.083832 708.710083,490.609680 724.040283,491.152893 
	C723.291626,497.578827 722.605103,503.471130 721.828735,510.134918 
	C706.921448,507.886169 692.261719,505.674744 676.915283,503.359741 
	C675.212891,518.108215 673.581299,532.243835 671.883667,546.951050 
	C674.722839,547.297852 677.287292,547.759216 679.869202,547.900391 
	C690.176025,548.463623 700.485535,549.037842 710.801819,549.300842 
	C712.236389,549.337402 714.417419,548.001404 715.046387,546.712280 
	C717.301880,542.089417 719.231018,537.279663 720.904846,532.410400 
	C722.020386,529.165222 723.860107,528.443848 726.938660,529.248779 
	C729.809509,529.999512 732.749023,530.487671 737.035034,531.377075 
	C734.663269,543.449768 732.462036,555.308044 729.782227,567.057190 
	C729.567749,567.997559 725.992981,568.805115 724.081848,568.620117 
	C713.323914,567.578491 702.599060,566.197693 691.859497,564.962769 
	C671.208557,562.587952 650.555237,560.233398 629.807617,557.859497 
	C628.261719,553.527100 628.226318,550.170471 633.846497,549.663330 
	C644.248718,548.724854 647.710205,543.280762 648.609375,532.695129 
	C651.212524,502.049988 655.367493,471.536774 658.893372,440.969452 
	C658.967041,440.330536 658.799561,439.663788 658.715942,438.669525 
	C654.383362,437.660004 650.047424,436.649719 644.888428,435.447662 
	C645.259521,432.210358 645.638000,428.908539 646.053223,425.286133 
	C659.700195,426.883026 672.721436,428.406677 686.192505,429.962372 
z"/>
<path fill="#5EABA5" opacity="1.000000" stroke="none" 
	d="
M453.680878,431.046051 
	C449.122620,430.635742 444.971313,430.402618 440.853058,429.898926 
	C434.684814,429.144470 430.002533,431.472076 427.189362,436.834564 
	C424.027832,442.861115 422.765228,449.621155 427.015594,455.306396 
	C430.172699,459.529358 434.693420,463.215118 439.367706,465.720459 
	C448.886780,470.822540 458.980194,474.840759 468.722290,479.543152 
	C476.577271,483.334656 483.890778,487.962616 488.915070,495.405273 
	C501.264038,513.698181 495.399597,538.078125 476.152527,548.921936 
	C458.124390,559.079041 439.321930,557.624756 420.424744,552.465759 
	C402.461945,547.561890 401.783661,546.424011 402.118286,527.826538 
	C402.210938,522.676147 402.872650,517.537231 403.222412,512.389648 
	C403.428558,509.355774 404.512146,507.812073 408.009766,507.551453 
	C416.719147,506.902466 416.719116,506.677246 419.052643,515.093140 
	C420.519287,520.382324 421.688873,525.770569 423.486084,530.942627 
	C424.153473,532.863342 425.907501,534.983276 427.719147,535.832825 
	C437.104736,540.234192 447.192047,542.029907 457.386810,540.664307 
	C460.807098,540.206177 464.584869,537.118408 466.825073,534.183655 
	C472.575073,526.650696 471.344910,515.121277 464.348694,508.693390 
	C461.091980,505.701294 457.181396,503.247803 453.220978,501.229523 
	C444.028870,496.545258 434.537140,492.450287 425.330658,487.792664 
	C412.791840,481.449097 402.777222,472.801025 400.914368,457.776581 
	C399.061096,442.829346 406.305573,429.678070 419.835938,422.161591 
	C433.793060,414.407990 448.819733,413.970551 464.054840,415.552582 
	C470.635193,416.235931 477.121582,417.981079 483.581451,419.532135 
	C484.846130,419.835754 486.746429,421.474426 486.738617,422.484833 
	C486.651367,433.744843 486.246552,445.002350 485.918549,456.571655 
	C480.337585,456.571655 476.068604,456.571655 471.278381,456.571655 
	C470.222351,451.734863 468.734009,446.793793 468.156830,441.748444 
	C467.576477,436.675385 465.105835,433.987518 460.328674,432.914948 
	C458.223755,432.442352 456.176208,431.714233 453.680878,431.046051 
z"/>
<path fill="#5EABA5" opacity="1.000000" stroke="none" 
	d="
M612.733398,443.574829 
	C612.979614,438.106689 610.370728,436.917664 605.702942,436.759888 
	C598.278320,436.508881 590.883362,435.376984 583.100830,434.579254 
	C582.729065,437.085480 582.271057,439.006104 582.182556,440.943573 
	C580.723694,472.882599 579.416077,504.829132 577.768433,536.758240 
	C577.537781,541.228699 579.117371,542.604065 583.061829,543.047852 
	C586.854980,543.474609 590.577332,544.594421 594.372742,544.920898 
	C598.498657,545.275818 600.637817,546.592346 599.228149,551.130188 
	C598.802734,552.499451 598.882324,554.025513 598.676636,555.997253 
	C576.549622,554.940796 554.647766,553.895020 532.836670,552.853638 
	C529.969116,546.977966 530.140808,546.508728 535.697144,544.634399 
	C539.007202,543.517822 542.244080,541.864441 545.643188,541.400513 
	C552.002625,540.532776 553.010498,537.034729 553.210815,531.200562 
	C554.262146,500.580933 555.853210,469.979889 557.239197,439.371582 
	C557.321045,437.564178 557.249817,435.749847 557.249817,433.731110 
	C547.911194,433.731110 538.818115,433.590088 529.743958,433.939850 
	C528.791443,433.976562 527.485718,436.814667 527.142212,438.514404 
	C525.964233,444.343933 525.141846,450.245300 524.173828,456.180756 
	C522.714233,456.180756 521.739258,456.228607 520.770142,456.173401 
	C510.053772,455.562836 509.795044,455.569580 509.330780,444.717316 
	C508.941803,435.624756 509.250885,426.502350 509.250885,417.239624 
	C550.559204,419.223419 591.072388,421.169037 632.784851,423.172211 
	C631.349609,435.641907 629.914490,448.111115 628.465027,460.704834 
	C623.214050,460.704834 618.799805,460.704834 613.784241,460.704834 
	C613.442017,454.920044 613.119568,449.469940 612.733398,443.574829 
z"/>
<path fill="#5EABA5" opacity="1.000000" stroke="none" 
	d="
M781.856934,464.716919 
	C782.358826,461.517181 782.794495,458.742828 783.296265,455.547607 
	C780.121155,454.492493 777.223145,453.168610 774.183960,452.601196 
	C769.192444,451.669250 767.895813,449.123322 769.712646,444.573792 
	C770.128723,443.532043 770.302551,442.393555 770.702087,440.861908 
	C789.157959,444.305725 807.393616,447.708466 825.371155,451.063019 
	C827.469482,456.649994 825.109375,459.390625 820.244507,459.396576 
	C809.323730,459.409943 806.444519,465.573853 804.873962,475.347107 
	C800.363708,503.413391 794.865051,531.324341 789.466675,559.240662 
	C788.619995,563.619141 789.723816,564.702271 793.867188,565.105469 
	C805.619202,566.249268 817.350098,567.668152 829.047180,569.283447 
	C832.551392,569.767273 834.103943,568.583069 835.412048,565.521118 
	C838.344177,558.657654 841.627563,551.944153 844.915710,544.850647 
	C849.606934,546.045654 854.064270,547.181030 859.199463,548.489136 
	C858.438416,552.715820 857.938293,556.792175 856.945312,560.744751 
	C854.677734,569.771606 852.154297,578.733887 849.767883,587.731201 
	C849.123291,590.161804 848.044739,591.260315 845.177002,590.716309 
	C813.157410,584.641846 781.112732,578.699768 749.078796,572.700378 
	C747.946533,572.488281 746.856079,572.052795 745.826721,571.745483 
	C743.981323,566.867432 745.812927,564.858765 750.665527,563.972778 
	C763.839905,561.567017 763.716003,561.389954 766.116211,548.482544 
	C771.284058,520.691833 776.559387,492.921173 781.856934,464.716919 
z"/>
<path fill="#F9F9F9" opacity="1.000000" stroke="none" 
	d="
M465.000000,174.866165 
	C481.461304,174.866104 497.422607,174.866104 513.724976,174.866104 
	C513.724976,202.990677 513.724976,230.718185 513.724976,258.875305 
	C504.709015,258.875305 495.674530,258.875305 485.965912,258.875305 
	C485.965912,254.113235 485.970459,249.339142 485.965088,244.565048 
	C485.946533,228.084488 477.102631,218.444107 460.735046,217.055206 
	C460.119965,217.003021 459.506592,216.930771 458.680573,216.846161 
	C469.766479,210.148773 473.847321,202.386566 471.172089,193.382538 
	C468.686005,185.015213 460.856873,179.118027 452.600952,179.394028 
	C443.894257,179.685089 436.370148,185.955505 434.394257,194.567017 
	C432.418671,203.177383 437.108704,211.304871 447.367493,216.599823 
	C443.761597,217.220215 440.375946,217.466187 437.198608,218.411957 
	C427.337372,221.347214 420.292480,230.783188 420.032501,241.222656 
	C419.888123,247.018814 420.006531,252.821487 420.006531,257.937958 
	C413.739716,259.435974 407.553375,259.812317 402.517151,262.414490 
	C396.976013,265.277527 395.281921,271.222748 397.124786,277.869934 
	C395.062561,277.869934 393.468414,277.869934 392.381653,277.869934 
	C391.578064,274.118256 391.449310,270.229401 389.916809,267.008453 
	C386.062775,258.908142 378.330566,259.248260 370.904266,259.299042 
	C364.349213,259.343903 358.489990,260.990082 355.659302,267.520172 
	C354.387512,270.453979 354.256378,273.882294 353.478149,277.725861 
	C351.872253,278.265076 349.606171,279.089050 349.603058,275.210754 
	C349.576294,242.073425 349.587738,208.936050 349.587738,174.866226 
	C388.082733,174.866226 426.291382,174.866226 465.000000,174.866165 
z"/>
<path fill="#F8F8F8" opacity="1.000000" stroke="none" 
	d="
M395.000000,353.728729 
	C381.012238,353.728546 367.522797,353.610077 354.037872,353.805756 
	C350.322174,353.859650 349.143707,352.759796 349.205933,349.001923 
	C349.415527,336.350189 349.275787,323.692841 349.301697,311.037720 
	C349.304352,309.747955 349.522888,308.458649 349.662170,306.941254 
	C371.389282,306.941254 392.827271,306.941254 415.185883,306.941254 
	C415.185883,313.504913 415.108551,320.080475 415.206726,326.653412 
	C415.314331,333.859009 419.707031,338.836578 426.079681,339.202057 
	C433.536163,339.629761 438.768799,334.806427 438.901428,327.175903 
	C439.016418,320.557709 438.925293,313.935883 438.925293,307.003967 
	C448.359558,307.003967 457.279694,307.003967 467.038605,307.003967 
	C467.038605,313.689880 466.959015,320.439819 467.060608,327.187073 
	C467.166565,334.224609 471.789185,339.053101 478.381012,339.236755 
	C485.479980,339.434570 490.531708,334.617493 490.724426,327.139679 
	C490.894714,320.532257 490.760132,313.916931 490.760132,306.999420 
	C498.739990,306.999420 506.120941,306.999420 513.787720,306.999420 
	C513.787720,322.511810 513.787720,337.762939 513.787720,353.728912 
	C474.304993,353.728912 434.902496,353.728912 395.000000,353.728729 
z"/>
<path fill="#F8F8F8" opacity="1.000000" stroke="none" 
	d="
M429.278442,323.761566 
	C429.237701,325.397186 429.488129,326.683533 429.067047,327.688416 
	C428.706573,328.548645 427.658752,329.360809 426.747070,329.633942 
	C426.373596,329.745850 425.307983,328.477020 425.012177,327.669617 
	C424.686005,326.779144 424.855225,325.697388 424.854797,324.698944 
	C424.848877,310.035828 424.933350,295.371857 424.783112,280.710297 
	C424.751892,277.663422 425.541138,275.911652 428.441711,274.566498 
	C433.541138,272.201660 440.297363,270.471375 442.824402,266.322174 
	C445.363556,262.153015 443.608643,255.357712 443.699158,249.712677 
	C443.743896,246.922745 443.706940,244.131500 443.706940,241.059998 
	C440.350983,241.059998 437.581451,241.059998 434.567047,241.059998 
	C434.111877,247.948364 433.725494,254.803101 433.080780,261.633453 
	C433.029419,262.177704 431.191711,262.553314 428.937439,263.569031 
	C429.370270,254.289932 429.225220,245.849884 430.330109,237.576767 
	C431.131287,231.577576 437.057709,227.184311 443.239990,226.907440 
	C449.721710,226.617157 456.239349,226.589615 462.717957,226.913757 
	C469.681122,227.262161 475.618622,232.708435 476.043182,239.534286 
	C476.516022,247.137146 476.151520,254.792084 476.151520,262.424347 
	C475.670563,262.681030 475.189606,262.937683 474.708649,263.194366 
	C473.770905,261.605621 472.122681,260.059479 472.024445,258.420471 
	C471.688019,252.805389 471.895416,247.157730 471.895416,241.150848 
	C468.593597,241.150848 465.718689,241.150848 462.259155,241.150848 
	C462.259155,249.276031 462.131866,257.234802 462.398224,265.180359 
	C462.437592,266.354950 464.136993,267.828369 465.415344,268.541473 
	C469.481689,270.809875 473.637695,272.955597 477.906769,274.808319 
	C480.470673,275.921021 481.183594,277.487457 481.162781,280.163940 
	C481.046204,295.159424 481.176361,310.157043 481.001648,325.151367 
	C480.983582,326.703156 479.510162,328.237976 478.711975,329.780640 
	C478.028259,328.280365 476.768250,326.786682 476.750946,325.278748 
	C476.596069,311.783783 476.438171,298.280640 476.784393,284.792816 
	C476.899780,280.296173 475.275116,278.436737 471.169983,277.974396 
	C470.352264,277.882233 469.514801,277.673737 468.761353,277.346466 
	C456.410889,271.981842 444.406952,274.956573 432.317413,278.546753 
	C429.100098,279.502228 429.269653,281.444489 429.272034,283.799622 
	C429.285339,296.963135 429.278351,310.126648 429.278442,323.761566 
z"/>
<path fill="#F7F7F7" opacity="1.000000" stroke="none" 
	d="
M603.720032,240.000031 
	C603.719849,252.801758 603.719849,265.103485 603.719849,277.784821 
	C597.390686,277.784821 591.501343,277.784821 585.231079,277.784821 
	C585.231079,243.725388 585.231079,209.665100 585.231079,175.230988 
	C591.132446,175.230988 597.038818,175.230988 603.720215,175.230988 
	C603.720215,196.644089 603.720215,218.072052 603.720032,240.000031 
z"/>
<path fill="#F3F3F3" opacity="1.000000" stroke="none" 
	d="
M503.000000,146.689056 
	C473.342255,146.689011 444.184448,146.710770 415.026764,146.662598 
	C411.299957,146.656448 406.305908,147.417175 406.179352,141.966766 
	C406.038788,135.912354 411.360138,137.072250 415.144165,137.068542 
	C470.127319,137.014725 525.110535,137.031647 580.093750,137.031677 
	C580.760193,137.031693 581.426697,137.030624 582.093140,137.032532 
	C585.600037,137.042572 589.348572,137.332260 589.315002,141.878784 
	C589.281189,146.451019 585.378845,146.657608 581.976135,146.663376 
	C555.817505,146.707703 529.658752,146.688660 503.000000,146.689056 
z"/>
<path fill="#FAFAFA" opacity="1.000000" stroke="none" 
	d="
M460.000000,165.189819 
	C423.083893,165.189926 386.667786,165.189926 349.916931,165.189926 
	C349.916931,161.926910 349.916931,159.219711 349.916931,156.241425 
	C404.555420,156.241425 458.932251,156.241425 513.687805,156.241425 
	C513.687805,158.989227 513.687805,161.707535 513.687805,165.189697 
	C495.975616,165.189697 478.237823,165.189697 460.000000,165.189819 
z"/>
<path fill="#F6F6F6" opacity="1.000000" stroke="none" 
	d="
M603.057190,353.069519 
	C596.973694,353.384552 591.205383,353.384552 585.148499,353.384552 
	C585.148499,337.774170 585.148499,322.381195 585.148499,306.411774 
	C590.633484,306.411774 595.928040,306.277832 601.202576,306.543182 
	C602.085083,306.587555 603.604370,308.362274 603.607300,309.341095 
	C603.650391,323.811829 603.486877,338.283234 603.057190,353.069519 
z"/>
<path fill="#F9F9F9" opacity="1.000000" stroke="none" 
	d="
M360.022278,287.832489 
	C378.469940,287.832397 396.421936,287.832397 414.775452,287.832397 
	C414.775452,290.887909 414.775452,293.610016 414.775452,296.695496 
	C393.302643,296.695496 371.773865,296.695496 349.910492,296.695496 
	C349.910492,293.844574 349.910492,291.139557 349.910492,287.832581 
	C353.294312,287.832581 356.410461,287.832581 360.022278,287.832489 
z"/>
<path fill="#F3F3F3" opacity="1.000000" stroke="none" 
	d="
M541.002563,240.800522 
	C536.840393,240.800507 533.177612,240.803619 529.514832,240.800049 
	C523.139465,240.793839 523.090149,240.755966 523.419067,234.457199 
	C523.469299,233.495667 523.736694,232.545486 523.942688,231.366882 
	C540.872925,231.366882 557.618286,231.366882 574.794312,231.366882 
	C574.794312,234.332687 574.794312,237.212769 574.794312,240.800644 
	C563.703003,240.800644 552.602478,240.800644 541.002563,240.800522 
z"/>
<path fill="#F3F3F3" opacity="1.000000" stroke="none" 
	d="
M523.453918,219.595749 
	C523.379211,212.231964 523.379211,212.230972 530.439636,212.230652 
	C545.080078,212.229965 559.720520,212.230438 574.791260,212.230438 
	C574.791260,215.489136 574.791260,218.364777 574.791260,221.916214 
	C571.176086,221.916214 567.564514,221.916214 563.952881,221.916199 
	C551.953369,221.916153 539.953125,221.981796 527.955444,221.832626 
	C526.460632,221.814056 524.979980,220.657501 523.453918,219.595749 
z"/>
<path fill="#F3F3F3" opacity="1.000000" stroke="none" 
	d="
M536.024170,344.079102 
	C549.146606,344.079132 561.773926,344.079132 574.811035,344.079132 
	C574.811035,347.321106 574.811035,350.200439 574.811035,353.762817 
	C571.655762,353.762817 568.544373,353.762817 565.432983,353.762817 
	C553.945862,353.762817 542.458740,353.763000 530.971619,353.762726 
	C522.606567,353.762543 522.017517,352.966553 524.275635,344.079071 
	C527.940979,344.079071 531.734985,344.079071 536.024170,344.079102 
z"/>
<path fill="#F3F3F3" opacity="1.000000" stroke="none" 
	d="
M545.000183,325.193268 
	C555.130859,325.193390 564.761658,325.193390 574.805298,325.193390 
	C574.805298,328.467102 574.805298,331.344299 574.805298,334.561920 
	C557.885986,334.561920 541.007324,334.561920 523.759583,334.561920 
	C523.628906,332.943451 523.568359,331.483276 523.382935,330.039124 
	C522.926392,326.481812 524.091858,324.884644 528.020630,325.113068 
	C533.496887,325.431549 539.005493,325.193176 545.000183,325.193268 
z"/>
<path fill="#F9F9F9" opacity="1.000000" stroke="none" 
	d="
M558.997375,315.964722 
	C547.080872,315.964691 535.663574,315.964691 523.991699,315.964691 
	C523.991699,312.801971 523.991699,310.202759 523.991699,307.145203 
	C540.843689,307.145203 557.657837,307.145203 574.836548,307.145203 
	C574.836548,309.876892 574.836548,312.600159 574.836548,315.964752 
	C569.688049,315.964752 564.592346,315.964752 558.997375,315.964722 
z"/>
<path fill="#FAFAFA" opacity="1.000000" stroke="none" 
	d="
M523.731262,160.041809 
	C524.630310,158.370804 525.515320,156.151093 526.429382,156.139069 
	C542.496277,155.927887 558.566833,155.986359 574.912659,155.986359 
	C574.912659,159.087906 574.912659,161.684250 574.912659,164.735840 
	C558.135376,164.735840 541.320496,164.735840 524.086853,164.735840 
	C523.971741,163.372955 523.851257,161.946777 523.731262,160.041809 
z"/>
<path fill="#FAFAFA" opacity="1.000000" stroke="none" 
	d="
M546.000000,297.047241 
	C538.407532,297.047272 531.315002,297.047272 523.983276,297.047272 
	C523.983276,293.855347 523.983276,291.255402 523.983276,288.244812 
	C540.859619,288.244812 557.680176,288.244812 574.848999,288.244812 
	C574.848999,291.002563 574.848999,293.714661 574.848999,297.047211 
	C565.325989,297.047211 555.913025,297.047211 546.000000,297.047241 
z"/>
<path fill="#FAFAFA" opacity="1.000000" stroke="none" 
	d="
M571.836060,278.154114 
	C555.760742,278.157349 540.170227,278.157349 524.156372,278.157349 
	C524.156372,275.111237 524.156372,272.397552 524.156372,269.314392 
	C540.902527,269.314392 557.736023,269.314392 575.216003,269.314392 
	C573.741272,272.319489 578.401917,276.622192 571.836060,278.154114 
z"/>
<path fill="#F9F9F9" opacity="1.000000" stroke="none" 
	d="
M541.001221,259.303589 
	C535.203491,259.303802 529.905518,259.303802 524.169373,259.303802 
	C524.169373,256.242401 524.169373,253.520859 524.169373,250.410629 
	C540.863342,250.410629 557.697266,250.410629 574.865479,250.410629 
	C574.865479,253.179398 574.865479,255.891861 574.865479,259.303345 
	C563.636108,259.303345 552.568542,259.303345 541.001221,259.303589 
z"/>
<path fill="#FAFAFA" opacity="1.000000" stroke="none" 
	d="
M563.983521,193.736908 
	C567.781982,193.736725 571.082886,193.736725 574.787354,193.736725 
	C574.787354,196.818573 574.787354,199.540176 574.787354,202.632736 
	C558.044250,202.632736 541.203796,202.632736 524.045898,202.632736 
	C524.045898,199.807281 524.045898,197.097076 524.045898,193.737076 
	C537.350708,193.737076 550.418274,193.737076 563.983521,193.736908 
z"/>
<path fill="#FAFAFA" opacity="1.000000" stroke="none" 
	d="
M563.981262,184.069702 
	C550.413208,184.069748 537.342957,184.069748 524.005920,184.069748 
	C524.005920,180.907486 524.005920,178.310379 524.005920,175.290375 
	C540.826477,175.290375 557.645508,175.290375 574.831055,175.290375 
	C574.831055,177.990601 574.831055,180.702606 574.831055,184.069672 
	C571.342712,184.069672 567.910828,184.069672 563.981262,184.069702 
z"/>
<path fill="#F9F9F9" opacity="1.000000" stroke="none" 
	d="
M467.032349,290.278107 
	C467.033112,292.558014 467.033112,294.383301 467.033112,296.629272 
	C457.804474,296.629272 448.761780,296.629272 438.942993,296.629272 
	C438.942993,294.200317 438.690613,291.580261 439.059753,289.050934 
	C439.220947,287.946564 440.470673,286.469452 441.541016,286.116394 
	C448.030701,283.975403 454.613037,282.317474 461.375641,285.196716 
	C462.283844,285.583435 463.551605,285.457336 464.196075,286.058472 
	C465.327515,287.113800 466.105499,288.548004 467.032349,290.278107 
z"/>
<path fill="#F8F8F8" opacity="1.000000" stroke="none" 
	d="
M443.810120,199.685318 
	C444.094788,192.564575 448.023407,188.531708 453.759369,189.009399 
	C459.156921,189.458908 462.935638,194.357681 462.122070,199.850998 
	C461.500793,204.045761 457.996796,207.215286 453.590698,207.568024 
	C449.136963,207.924576 445.850800,205.402191 443.810120,199.685318 
z"/>
<path fill="#FAFAFA" opacity="1.000000" stroke="none" 
	d="
M490.766785,273.501190 
	C490.393707,271.838318 490.024628,270.605408 489.609253,269.217957 
	C497.580841,269.217957 505.563507,269.217957 513.789917,269.217957 
	C513.789917,272.196228 513.789917,274.907043 513.789917,278.141113 
	C506.785492,278.141113 500.048981,278.108185 493.313049,278.155090 
	C489.969604,278.178345 490.986938,275.715668 490.766785,273.501190 
z"/>
<path fill="#FAFAFA" opacity="1.000000" stroke="none" 
	d="
M510.790710,297.044556 
	C504.024567,297.046661 497.737946,297.046661 491.115662,297.046661 
	C491.115662,293.903412 491.115662,291.192352 491.115662,288.156006 
	C498.660706,288.156006 506.045746,288.156006 514.108337,288.156006 
	C512.563721,291.177551 517.314087,295.446075 510.790710,297.044556 
z"/>
<path fill="#F7F7F7" opacity="1.000000" stroke="none" 
	d="
M590.100037,287.824341 
	C594.725525,287.824158 598.863953,287.824158 603.358887,287.824158 
	C603.358887,290.953827 603.358887,293.678650 603.358887,296.734802 
	C597.337646,296.734802 591.444031,296.734802 585.202820,296.734802 
	C585.202820,293.936890 585.202820,291.218414 585.202820,288.142670 
	C586.728882,288.032562 588.170898,287.928528 590.100037,287.824341 
z"/>
<path fill="#F7F7F7" opacity="1.000000" stroke="none" 
	d="
M585.427307,164.630554 
	C585.089478,161.687332 585.089478,159.081696 585.089478,156.222778 
	C591.316956,156.222778 597.219604,156.222778 603.407043,156.222778 
	C603.407043,159.206146 603.407043,161.931885 603.407043,164.968155 
	C597.322693,164.968155 591.543945,164.968155 585.427307,164.630554 
z"/>
<path fill="#F3F3F3" opacity="1.000000" stroke="none" 
	d="
M381.229614,138.865631 
	C382.628143,144.325165 381.524048,146.237778 376.678802,146.569458 
	C373.560333,146.782944 370.295959,146.769897 367.299835,146.033264 
	C365.876404,145.683289 363.906250,143.316208 364.019012,142.022980 
	C364.162750,140.375076 366.112732,137.614517 367.375183,137.562912 
	C371.883728,137.378693 376.430817,138.137772 381.229614,138.865631 
z"/>
<path fill="#F8F8F8" opacity="1.000000" stroke="none" 
	d="
M369.363892,278.156433 
	C365.585907,277.960754 362.955872,276.297150 364.073822,272.952454 
	C364.668518,271.173218 367.687347,269.716583 369.888641,269.096100 
	C372.192719,268.446655 375.035706,268.384705 377.256439,269.165619 
	C379.176025,269.840607 380.553314,272.057678 382.170319,273.593079 
	C380.542816,275.106049 379.147736,277.293793 377.226990,277.955414 
	C374.997131,278.723480 372.305969,278.152405 369.363892,278.156433 
z"/>
<path fill="#F6F6F6" opacity="1.000000" stroke="none" 
	d="
M415.155518,276.061279 
	C412.836273,276.814850 410.382965,277.740997 408.309570,277.203003 
	C407.237549,276.924835 405.798309,273.403809 406.365570,272.487854 
	C407.378571,270.852295 409.672729,269.766907 411.648468,269.051300 
	C413.107422,268.522888 414.911591,268.947510 416.362793,268.947510 
	C415.954376,271.251831 415.566620,273.439392 415.155518,276.061279 
z"/>
<path fill="#F9FAFA" opacity="1.000000" stroke="none" 
	d="
M306.628510,541.440308 
	C297.988007,535.868408 292.669006,527.977783 289.250153,519.026794 
	C282.176331,500.506836 280.861664,481.433167 286.006287,462.185272 
	C288.017090,454.662079 290.137848,446.612122 298.055023,443.014008 
	C308.912750,438.079498 320.161285,436.956299 331.319214,442.469910 
	C338.076447,445.808929 343.415771,450.845856 347.112732,457.335449 
	C360.992706,481.700104 363.006775,506.966949 352.140167,532.984863 
	C348.930847,540.669006 343.724030,545.608215 334.719269,546.580688 
	C324.811188,547.650696 315.468811,547.414734 306.628510,541.440308 
z"/>
</svg>