<svg version="1.1" id="Layer_1" xmlns="http://www.w3.org/2000/svg" xmlns:xlink="http://www.w3.org/1999/xlink" x="0px" y="0px"
	 width="100%" viewBox="0 0 918 376" enable-background="new 0 0 918 376" xml:space="preserve">
<path fill="#FFFFFF" opacity="1.000000" stroke="none" 
	d="
M617.000000,377.000000 
	C411.333344,377.000000 206.166672,377.000000 1.000000,377.000000 
	C1.000000,251.666672 1.000000,126.333336 1.000000,1.000000 
	C307.000000,1.000000 613.000000,1.000000 919.000000,1.000000 
	C919.000000,126.333336 919.000000,251.666672 919.000000,377.000000 
	C818.500000,377.000000 718.000000,377.000000 617.000000,377.000000 
M78.038338,212.555099 
	C78.693810,215.985153 79.378746,219.409897 79.999146,222.846283 
	C81.741386,232.496506 82.886711,233.260269 92.783287,233.129333 
	C96.372246,233.081848 97.571709,231.837418 98.133293,228.345505 
	C100.891731,211.193405 103.954361,194.090240 106.910782,176.962753 
	C107.233727,178.552734 107.653519,180.293381 107.934151,182.056168 
	C109.344894,190.917740 110.526627,199.820984 112.169258,208.638718 
	C113.415405,215.328110 115.023636,221.969452 116.855118,228.524796 
	C118.614182,234.820938 123.780083,233.299225 128.415421,233.145035 
	C131.281387,233.049698 132.449356,232.039078 132.951141,229.185913 
	C136.839462,207.077240 140.891739,184.997437 144.868027,162.904160 
	C146.004044,156.592194 147.057266,150.265320 148.208786,143.595840 
	C146.054306,143.480606 144.586319,143.345490 143.117310,143.333115 
	C136.060776,143.273651 136.044876,143.282776 134.890808,150.197769 
	C133.248505,160.038132 131.508911,169.864456 130.035187,179.730270 
	C128.075226,192.851273 126.331062,206.004501 124.893173,216.289902 
	C121.310699,196.688492 117.091217,174.407425 113.284088,152.056122 
	C112.567352,147.848190 110.784348,146.972504 107.049034,146.989777 
	C103.139206,147.007874 101.532867,148.486923 100.896507,152.415482 
	C97.285385,174.709061 93.412651,196.960281 89.628937,219.225906 
	C90.237724,218.823685 90.036728,218.220383 89.940559,217.600830 
	C86.472618,195.258514 83.095078,172.901718 79.510239,150.578217 
	C78.290459,142.982437 78.055038,143.186783 70.494232,143.258392 
	C66.619514,143.295090 65.506805,144.760925 66.196915,148.431015 
	C70.160896,169.511948 74.038811,190.609070 78.038338,212.555099 
M417.621124,200.628723 
	C417.235840,190.537247 416.850525,180.445786 416.465240,170.354309 
	C417.759766,171.154877 418.276367,172.102463 418.645050,173.104477 
	C425.415802,191.505356 432.132904,209.926086 438.952423,228.308838 
	C440.528076,232.556061 443.820679,233.890900 448.961304,232.756805 
	C452.805298,231.908783 451.849701,228.810379 451.853455,226.301010 
	C451.892365,200.485001 451.882233,174.668945 451.866730,148.852890 
	C451.865662,147.109299 451.710999,145.365784 451.616974,143.395432 
	C449.673889,143.395432 448.353149,143.361053 447.034668,143.401199 
	C440.087372,143.612686 440.078308,143.619202 440.083282,150.384201 
	C440.090668,160.377426 440.117950,170.370636 440.126923,180.363861 
	C440.134613,188.907120 440.128479,197.450394 440.128479,202.615601 
	C433.704742,186.105118 425.912323,166.555069 418.548645,146.844818 
	C416.472260,141.286911 412.260590,143.533020 408.944519,143.393875 
	C405.362152,143.243561 405.928497,146.581238 405.928009,149.027771 
	C405.922760,175.343491 405.919159,201.659195 405.939056,227.974899 
	C405.940125,229.402725 406.153442,230.830368 406.295563,232.602295 
	C407.985809,232.602295 409.291016,232.627350 410.595032,232.598114 
	C417.579132,232.441513 417.614685,232.408737 417.621429,225.583817 
	C417.629333,217.589172 417.622406,209.594528 417.621124,200.628723 
M334.850250,165.269882 
	C334.861572,150.881531 330.063782,145.335587 315.830139,143.726059 
	C311.714478,143.260666 307.522644,143.507202 303.371765,143.304291 
	C298.773407,143.079498 297.031433,144.839188 297.074432,149.737900 
	C297.302460,175.713684 297.177765,201.692535 297.191681,227.670334 
	C297.192444,229.129120 297.339203,230.587845 297.444580,232.537842 
	C303.301636,232.537842 308.947784,232.950302 314.512604,232.452911 
	C326.502960,231.381195 334.250793,224.719055 336.447174,212.879898 
	C337.513733,207.130783 337.439087,200.960449 336.679047,195.137726 
	C335.829315,188.628220 330.787262,185.234283 324.043579,183.600861 
	C331.827209,179.851883 333.869659,173.321289 334.850250,165.269882 
M477.166504,219.347107 
	C476.337463,217.550278 475.086884,215.829773 474.745544,213.944656 
	C471.782440,197.579788 471.376068,181.129807 475.233521,164.908112 
	C477.451508,155.580994 485.620941,151.768585 495.204590,154.452927 
	C496.630859,154.852417 498.010956,155.416748 499.395264,155.898834 
	C503.017883,148.770035 501.332886,144.269196 493.813324,142.994339 
	C474.084991,139.649643 465.620758,147.949677 462.220276,164.705002 
	C458.980652,180.667587 459.289215,196.855164 461.378662,212.930832 
	C462.502838,221.579956 465.315369,229.750519 475.012878,232.599060 
	C482.440857,234.780945 489.808228,233.969772 497.017242,231.221893 
	C500.360352,229.947586 501.855408,227.962189 501.744598,224.115311 
	C501.471405,214.630051 501.695892,205.130539 501.712433,195.636765 
	C501.721375,190.523590 501.714050,185.410400 501.714050,179.853333 
	C496.266724,179.853333 491.457581,180.020798 486.666382,179.799850 
	C482.898743,179.626083 482.269379,181.568558 482.251282,184.717453 
	C482.233826,187.757950 482.476562,190.136322 486.429535,189.597092 
	C489.962097,189.115234 490.540405,191.103287 490.484894,194.082794 
	C490.351532,201.242279 490.456726,208.406006 490.438538,215.567947 
	C490.424683,221.040192 488.694092,222.699936 483.215698,221.990280 
	C481.329681,221.745972 479.557831,220.620361 477.166504,219.347107 
M373.860992,186.981216 
	C373.860992,184.395935 373.860992,181.810669 373.860992,178.757233 
	C367.677734,178.757233 362.089722,178.757233 356.471863,178.757233 
	C356.471863,170.246094 356.471863,162.221786 356.471863,153.985550 
	C360.723877,153.985550 364.547607,153.985641 368.371338,153.985550 
	C377.731537,153.985352 377.800415,153.908478 376.851471,144.440292 
	C376.835663,144.282501 376.731171,144.133606 376.424225,143.389252 
	C366.905609,143.389252 357.125916,143.255859 347.361420,143.580200 
	C346.297913,143.615509 344.445099,146.285248 344.435547,147.742706 
	C344.257874,174.881607 344.266876,202.022202 344.430450,229.161270 
	C344.437561,230.338043 346.267639,232.486008 347.302216,232.519440 
	C355.784943,232.793457 364.286194,232.826782 372.766083,232.510529 
	C374.078094,232.461594 375.974762,230.464218 376.419250,229.007339 
	C377.048462,226.944885 376.578766,224.547180 376.578766,221.718414 
	C369.347565,221.718414 362.783112,221.718414 356.326111,221.718414 
	C356.326111,210.862717 356.326111,200.592957 356.326111,189.722122 
	C360.541138,189.722122 364.500366,189.911865 368.426971,189.636703 
	C370.210114,189.511734 371.928741,188.465790 373.860992,186.981216 
M153.990295,213.499496 
	C153.990295,219.750565 153.990295,226.001648 153.990295,232.679443 
	C162.342789,232.679443 169.972565,232.679718 177.602325,232.679367 
	C186.364151,232.678940 186.370331,232.678406 185.949387,223.750504 
	C185.928040,223.297272 185.645950,222.856323 185.299103,221.892181 
	C178.978455,221.892181 172.570358,221.892181 166.140823,221.892181 
	C166.140823,210.948593 166.140823,200.566330 166.140823,189.713760 
	C170.656921,189.713760 174.789673,189.627106 178.916687,189.743546 
	C181.770096,189.824051 183.378952,188.704391 183.468491,185.788498 
	C183.533310,183.677582 183.481140,181.563080 183.481140,178.896423 
	C177.520615,178.896423 171.942871,178.896423 166.174591,178.896423 
	C166.174591,170.327087 166.174591,162.322342 166.174591,153.981186 
	C171.569351,153.981186 176.553299,153.794846 181.515823,154.040710 
	C185.419571,154.234131 187.105148,152.747238 186.816269,148.861115 
	C186.695969,147.242691 186.796280,145.607864 186.796280,143.320877 
	C177.410172,143.320877 168.464630,143.519714 159.534286,143.237335 
	C155.042953,143.095306 153.875061,144.798004 153.910461,149.066452 
	C154.085800,170.209656 153.990311,191.355103 153.990295,213.499496 
M587.692017,178.911194 
	C586.388550,178.271454 583.976257,177.671417 583.951660,176.985870 
	C583.680969,169.429581 583.781555,161.860001 583.781555,153.978012 
	C589.890869,153.978012 595.201111,153.894150 600.507019,154.010681 
	C603.503723,154.076508 604.794434,152.737366 604.761414,149.850449 
	C604.737732,147.782379 604.756836,145.713821 604.756836,143.320679 
	C595.270508,143.320679 586.620056,143.573654 577.994019,143.223373 
	C573.024353,143.021561 571.846680,144.906204 571.881531,149.585068 
	C572.075195,175.556656 571.969177,201.530426 571.986816,227.503433 
	C571.987915,229.095718 572.169922,230.687881 572.292236,232.679428 
	C580.352539,232.679428 587.983276,232.679886 595.614075,232.679276 
	C604.239197,232.678589 604.246399,232.677933 603.965393,224.206512 
	C603.945007,223.590073 603.711060,222.980713 603.467163,221.871399 
	C596.937195,221.871399 590.526978,221.871399 584.118652,221.871399 
	C584.118652,210.936188 584.118652,200.554916 584.118652,189.713547 
	C588.650818,189.713547 592.785156,189.623062 596.913269,189.744385 
	C599.810608,189.829559 601.314331,188.654953 601.337219,185.727325 
	C601.353638,183.621246 601.340393,181.514923 601.340393,178.911880 
	C596.892761,178.911880 592.770203,178.911880 587.692017,178.911194 
M543.171021,144.412140 
	C537.193542,147.586700 533.777283,152.846848 531.934753,159.072006 
	C526.038940,178.991791 526.394470,199.168869 530.511108,219.291611 
	C533.644226,234.606735 547.810791,235.822510 557.907715,232.177689 
	C564.647827,229.744614 566.066162,224.913727 562.443970,218.095154 
	C561.726074,218.373856 560.982910,218.661514 560.240417,218.950760 
	C549.236511,223.237289 542.839966,220.161301 541.385376,208.549576 
	C540.172791,198.869827 540.152710,188.966248 540.501282,179.193787 
	C540.705017,173.484299 542.031128,167.605606 543.991455,162.217468 
	C546.870422,154.304062 553.127258,152.087128 560.921814,155.176422 
	C561.635986,155.459473 562.396973,155.624374 563.106201,155.835220 
	C566.662109,147.394562 564.200500,142.786835 555.577515,142.380768 
	C551.709778,142.198639 547.773743,143.468719 543.171021,144.412140 
M745.771667,157.964630 
	C746.224854,161.569550 746.985962,165.167892 747.062927,168.780807 
	C747.196472,175.040451 748.525696,181.024368 753.312561,185.073547 
	C757.568298,188.673431 757.281494,192.531860 756.376221,197.433594 
	C752.752686,197.433594 749.275757,197.364243 745.802490,197.448059 
	C738.608276,197.621643 732.577026,200.188217 729.666138,207.132111 
	C726.085754,215.673065 728.693237,224.558060 728.945251,233.416840 
	C730.279541,232.241455 730.860840,230.934662 730.890442,229.615494 
	C731.002625,224.618301 730.879761,219.616318 730.949219,214.617584 
	C731.062622,206.449524 735.992004,201.256607 744.172302,200.674988 
	C746.328979,200.521622 748.502014,200.574875 750.667542,200.571976 
	C759.192749,200.560516 759.184998,200.565506 759.993469,192.068970 
	C760.032471,191.659790 760.417053,191.283508 760.393677,191.324493 
	C766.742798,191.324493 772.724792,191.324493 778.923706,191.324493 
	C778.923706,192.284912 779.083069,193.632202 778.894592,194.928955 
	C778.263489,199.271179 779.907227,201.099976 784.394043,200.623260 
	C787.195251,200.325638 790.056641,200.502670 792.887146,200.590302 
	C801.129700,200.845444 804.734131,203.648499 807.453674,211.608917 
	C807.763550,212.515915 808.691101,213.211868 809.332214,214.005707 
	C809.668396,212.916336 810.451050,211.745667 810.269836,210.750488 
	C808.863586,203.026367 802.245239,197.898193 793.162048,197.465622 
	C789.565613,197.294357 785.954163,197.437515 782.664185,197.437515 
	C779.950500,189.954254 783.548889,185.789200 788.610718,182.181458 
	C791.099854,188.054779 794.805298,192.316971 801.541748,193.409683 
	C805.330566,194.024277 806.712891,192.991959 806.664978,189.114319 
	C806.522766,177.616776 806.695740,166.115601 806.589783,154.617279 
	C806.505066,145.426514 801.336670,139.813507 792.175720,138.392914 
	C790.283203,138.099457 788.480286,137.241058 786.629395,136.664520 
	C781.145020,134.956284 775.743835,132.226425 770.154175,131.758530 
	C755.731567,130.551270 745.180603,138.925568 743.378906,152.177811 
	C743.138611,153.945175 744.372314,155.912933 745.771667,157.964630 
M232.945038,222.467819 
	C232.945038,225.725815 232.945038,228.983795 232.945038,232.679443 
	C240.955994,232.679443 248.246750,232.679504 255.537506,232.679443 
	C265.744659,232.679352 265.748474,232.678955 264.808289,222.508850 
	C264.783539,222.240906 264.449768,222.001541 263.768799,221.094162 
	C257.877869,221.094162 251.496460,221.094162 244.616364,221.094162 
	C244.616364,194.894058 244.616364,169.355606 244.616364,143.658463 
	C243.128342,143.534088 242.159744,143.390717 241.189926,143.381866 
	C232.945526,143.306732 232.945175,143.314072 232.945114,151.588287 
	C232.944931,174.884140 232.945023,198.180008 232.945038,222.467819 
M650.935547,228.285522 
	C650.376770,231.819702 651.938538,232.882965 655.389893,232.747131 
	C661.537476,232.505173 667.701477,232.679474 673.858582,232.679398 
	C683.440491,232.679291 683.446533,232.678879 682.942688,223.135086 
	C682.918945,222.684814 682.623657,222.248871 682.219727,221.189697 
	C675.990723,221.189697 669.601013,221.189697 662.705444,221.189697 
	C662.705444,195.001495 662.705444,169.459305 662.705444,144.020996 
	C651.859680,142.085068 650.935486,142.827087 650.935425,152.944321 
	C650.935425,177.739212 650.935364,202.534119 650.935547,228.285522 
M623.117798,145.697479 
	C620.617859,141.815369 616.889832,144.187134 613.784851,144.233795 
	C613.087280,144.244278 611.865295,147.608749 611.856323,149.433929 
	C611.729431,175.409180 611.764893,201.385254 611.783020,227.361115 
	C611.783997,228.812790 611.976257,230.264328 612.121643,232.308762 
	C620.164734,232.308762 627.940369,232.309738 635.716003,232.308517 
	C644.396362,232.307159 644.401367,232.305939 643.826477,223.759766 
	C643.794800,223.289322 643.569580,222.831909 643.245972,221.722290 
	C639.419495,221.722290 635.479431,221.748306 631.539734,221.717117 
	C621.957458,221.641251 623.204834,222.723938 623.183960,213.602478 
	C623.132874,191.289978 623.162292,168.977310 623.117798,145.697479 
M193.803940,179.500000 
	C193.803940,196.922119 193.803940,214.344223 193.803940,232.306808 
	C203.255707,232.306808 212.040619,232.160721 220.816833,232.373413 
	C224.733887,232.468338 226.402649,231.114227 225.924301,227.181839 
	C225.728821,225.574951 225.749176,223.941788 225.642609,221.722168 
	C220.393570,221.722168 215.436462,221.488556 210.512909,221.794693 
	C206.433441,222.048355 205.068344,220.774460 205.106461,216.528671 
	C205.305283,194.387634 205.199112,172.243851 205.199081,150.101028 
	C205.199066,148.159119 205.199066,146.217194 205.199066,144.057343 
	C203.274780,143.926895 201.984726,143.770828 200.693817,143.763412 
	C193.812775,143.723984 193.808304,143.736862 193.805115,150.530106 
	C193.800735,159.853409 193.803802,169.176697 193.803940,179.500000 
M384.056488,195.500000 
	C384.056488,207.727356 384.056488,219.954727 384.056488,232.257111 
	C386.337524,232.257111 387.814789,232.302261 389.288544,232.249390 
	C395.983368,232.009216 395.986023,231.999252 395.986359,225.341309 
	C395.987671,199.892410 395.986938,174.443512 395.986938,148.994614 
	C395.986938,147.235367 395.986908,145.476135 395.986908,143.560974 
	C394.287048,143.639633 393.299774,143.689728 392.312073,143.730331 
	C384.059448,144.069733 384.057587,144.069199 384.056824,152.085175 
	C384.055450,166.223450 384.056519,180.361725 384.056488,195.500000 
M704.966736,235.918137 
	C704.966736,239.520477 704.966736,243.122803 704.966736,246.373520 
	C707.088074,247.054276 709.469360,247.236206 709.653992,247.970505 
	C711.030518,253.444565 714.933289,250.217575 717.934509,250.941757 
	C718.395386,248.769073 718.793762,246.891174 719.209534,244.931442 
	C724.858704,244.931442 730.246399,244.931442 734.822937,244.931442 
	C736.191101,247.366287 736.807434,249.739441 738.338989,250.846542 
	C740.029297,252.068390 749.471924,247.749741 749.741882,245.665909 
	C750.207397,242.073013 750.862854,237.983612 749.591614,234.852448 
	C748.582092,232.365936 745.051636,230.384048 742.211975,229.282684 
	C738.087585,227.683075 736.585205,229.392563 735.643982,235.661453 
	C730.119873,235.661453 724.571960,235.661453 719.075684,235.661453 
	C718.267700,229.562134 715.721558,227.285492 711.845154,229.384995 
	C709.292908,230.767288 707.265564,233.118774 704.966736,235.918137 
M775.225708,234.254547 
	C776.541687,235.463531 777.857666,236.672531 780.579468,239.173035 
	C783.545471,235.534653 786.267395,232.174652 789.012878,228.834137 
	C791.749573,225.504242 794.814209,222.982239 799.615845,223.802139 
	C800.473633,223.948624 801.536987,222.891586 802.505432,222.390259 
	C802.362183,222.021713 802.218933,221.653183 802.075684,221.284637 
	C800.182617,221.068878 798.289551,220.853119 796.228333,220.618179 
	C797.782471,215.695709 796.585327,211.779602 792.574341,208.957169 
	C787.833679,205.621323 783.459961,207.472488 779.372620,210.465576 
	C775.364929,207.472137 771.313538,205.846405 766.732483,208.534531 
	C762.076050,211.266876 761.457275,215.764282 762.191467,220.465790 
	C760.051941,220.926102 758.462891,221.267975 756.873840,221.609863 
	C757.635010,223.120743 758.480835,223.928452 759.163452,223.808426 
	C763.938416,222.968918 766.982239,225.512680 769.807007,228.791138 
	C771.324646,230.552628 773.080872,232.108521 775.225708,234.254547 
M809.043274,226.109375 
	C802.885925,228.457672 800.505920,231.844467 800.964050,237.606140 
	C801.711182,247.002502 808.514282,251.854523 819.783936,251.028717 
	C826.015808,250.572083 831.699646,242.500748 831.026672,235.063293 
	C830.602295,230.372971 827.127930,226.683319 822.454895,226.063492 
	C821.016541,225.872711 819.550415,225.892044 817.408875,225.778748 
	C818.572693,221.999680 819.609741,218.632324 821.099365,213.795258 
	C816.499512,215.202881 812.969971,216.282974 809.440491,217.363037 
	C810.947754,219.952972 812.455078,222.542923 814.284485,225.686356 
	C812.893677,225.788452 811.382874,225.899338 809.043274,226.109375 
M278.412903,201.873291 
	C279.408722,201.873245 280.404572,201.876160 281.400391,201.872696 
	C287.704742,201.850739 288.035492,201.527313 288.004639,195.045456 
	C287.999451,193.950012 287.768921,192.855621 287.597931,191.374893 
	C280.212952,191.374893 273.094940,191.190170 266.003204,191.539383 
	C264.673004,191.604889 262.829163,193.595108 262.329346,195.071808 
	C261.690338,196.959839 262.174255,199.227921 262.174255,201.873123 
	C267.560577,201.873123 272.498505,201.873123 278.412903,201.873291 
M731.762878,149.167221 
	C737.135010,140.688065 735.570496,131.742737 727.898071,127.069313 
	C720.496826,122.561028 711.115540,124.893250 706.684753,132.342911 
	C702.926697,138.661530 704.704651,147.472321 710.646851,151.977280 
	C716.903748,156.720856 725.108887,155.834335 731.762878,149.167221 
M806.408630,135.063492 
	C806.148132,141.485199 808.764832,146.283234 813.746643,148.518829 
	C818.354919,150.586777 823.981812,149.514130 827.550293,145.887299 
	C831.215820,142.161850 832.245544,136.674377 830.143372,132.068359 
	C827.935486,127.230507 823.782715,124.759727 818.105408,124.970139 
	C811.945129,125.198456 808.448914,128.732895 806.408630,135.063492 
M714.377136,175.916748 
	C709.640259,183.340683 711.098389,191.045364 717.944336,194.765320 
	C724.312988,198.225906 732.084534,195.619400 735.244080,188.963120 
	C737.656738,183.880325 736.166443,177.801071 731.616577,174.165985 
	C726.645996,170.194763 720.770325,170.609863 714.377136,175.916748 
M816.397156,175.715942 
	C811.830322,179.805267 810.641785,183.635147 812.809814,187.942276 
	C814.904968,192.104492 818.360046,194.067566 823.018860,193.359955 
	C828.714478,192.494873 832.144409,187.254440 830.915955,181.570084 
	C829.656250,175.741150 824.176697,173.267990 816.397156,175.715942 
z"/>
<path fill="#5FACA6" opacity="1.000000" stroke="none" 
	d="
M77.992126,212.127899 
	C74.038811,190.609070 70.160896,169.511948 66.196915,148.431015 
	C65.506805,144.760925 66.619514,143.295090 70.494232,143.258392 
	C78.055038,143.186783 78.290459,142.982437 79.510239,150.578217 
	C83.095078,172.901718 86.472618,195.258514 89.940559,217.600830 
	C90.036728,218.220383 90.237724,218.823685 89.628937,219.225906 
	C93.412651,196.960281 97.285385,174.709061 100.896507,152.415482 
	C101.532867,148.486923 103.139206,147.007874 107.049034,146.989777 
	C110.784348,146.972504 112.567352,147.848190 113.284088,152.056122 
	C117.091217,174.407425 121.310699,196.688492 124.893173,216.289902 
	C126.331062,206.004501 128.075226,192.851273 130.035187,179.730270 
	C131.508911,169.864456 133.248505,160.038132 134.890808,150.197769 
	C136.044876,143.282776 136.060776,143.273651 143.117310,143.333115 
	C144.586319,143.345490 146.054306,143.480606 148.208786,143.595840 
	C147.057266,150.265320 146.004044,156.592194 144.868027,162.904160 
	C140.891739,184.997437 136.839462,207.077240 132.951141,229.185913 
	C132.449356,232.039078 131.281387,233.049698 128.415421,233.145035 
	C123.780083,233.299225 118.614182,234.820938 116.855118,228.524796 
	C115.023636,221.969452 113.415405,215.328110 112.169258,208.638718 
	C110.526627,199.820984 109.344894,190.917740 107.934151,182.056168 
	C107.653519,180.293381 107.233727,178.552734 106.910782,176.962753 
	C103.954361,194.090240 100.891731,211.193405 98.133293,228.345505 
	C97.571709,231.837418 96.372246,233.081848 92.783287,233.129333 
	C82.886711,233.260269 81.741386,232.496506 79.999146,222.846283 
	C79.378746,219.409897 78.693810,215.985153 77.992126,212.127899 
z"/>
<path fill="#5FACA6" opacity="1.000000" stroke="none" 
	d="
M417.621521,201.114304 
	C417.622406,209.594528 417.629333,217.589172 417.621429,225.583817 
	C417.614685,232.408737 417.579132,232.441513 410.595032,232.598114 
	C409.291016,232.627350 407.985809,232.602295 406.295563,232.602295 
	C406.153442,230.830368 405.940125,229.402725 405.939056,227.974899 
	C405.919159,201.659195 405.922760,175.343491 405.928009,149.027771 
	C405.928497,146.581238 405.362152,143.243561 408.944519,143.393875 
	C412.260590,143.533020 416.472260,141.286911 418.548645,146.844818 
	C425.912323,166.555069 433.704742,186.105118 440.128479,202.615601 
	C440.128479,197.450394 440.134613,188.907120 440.126923,180.363861 
	C440.117950,170.370636 440.090668,160.377426 440.083282,150.384201 
	C440.078308,143.619202 440.087372,143.612686 447.034668,143.401199 
	C448.353149,143.361053 449.673889,143.395432 451.616974,143.395432 
	C451.710999,145.365784 451.865662,147.109299 451.866730,148.852890 
	C451.882233,174.668945 451.892365,200.485001 451.853455,226.301010 
	C451.849701,228.810379 452.805298,231.908783 448.961304,232.756805 
	C443.820679,233.890900 440.528076,232.556061 438.952423,228.308838 
	C432.132904,209.926086 425.415802,191.505356 418.645050,173.104477 
	C418.276367,172.102463 417.759766,171.154877 416.465240,170.354309 
	C416.850525,180.445786 417.235840,190.537247 417.621521,201.114304 
z"/>
<path fill="#60ACA6" opacity="1.000000" stroke="none" 
	d="
M334.831665,165.709686 
	C333.869659,173.321289 331.827209,179.851883 324.043579,183.600861 
	C330.787262,185.234283 335.829315,188.628220 336.679047,195.137726 
	C337.439087,200.960449 337.513733,207.130783 336.447174,212.879898 
	C334.250793,224.719055 326.502960,231.381195 314.512604,232.452911 
	C308.947784,232.950302 303.301636,232.537842 297.444580,232.537842 
	C297.339203,230.587845 297.192444,229.129120 297.191681,227.670334 
	C297.177765,201.692535 297.302460,175.713684 297.074432,149.737900 
	C297.031433,144.839188 298.773407,143.079498 303.371765,143.304291 
	C307.522644,143.507202 311.714478,143.260666 315.830139,143.726059 
	C330.063782,145.335587 334.861572,150.881531 334.831665,165.709686 
M309.077240,217.320557 
	C309.163605,218.773087 309.249969,220.225616 309.331818,221.602371 
	C316.712189,222.819397 320.115875,221.477432 321.850159,214.990631 
	C323.269836,209.680435 323.856995,203.858017 323.363800,198.393478 
	C322.611511,190.058502 317.600220,187.469742 309.077209,190.113708 
	C309.077209,198.800903 309.077209,207.578918 309.077240,217.320557 
M317.551331,154.419006 
	C314.859741,154.215652 312.168121,154.012314 309.384430,153.802002 
	C309.384430,162.702148 309.384430,170.751404 309.384430,180.422699 
	C313.169189,178.937820 316.917969,178.523590 318.985565,176.440613 
	C323.589874,171.802017 322.767334,159.815674 317.551331,154.419006 
z"/>
<path fill="#5FACA6" opacity="1.000000" stroke="none" 
	d="
M477.450165,219.622238 
	C479.557831,220.620361 481.329681,221.745972 483.215698,221.990280 
	C488.694092,222.699936 490.424683,221.040192 490.438538,215.567947 
	C490.456726,208.406006 490.351532,201.242279 490.484894,194.082794 
	C490.540405,191.103287 489.962097,189.115234 486.429535,189.597092 
	C482.476562,190.136322 482.233826,187.757950 482.251282,184.717453 
	C482.269379,181.568558 482.898743,179.626083 486.666382,179.799850 
	C491.457581,180.020798 496.266724,179.853333 501.714050,179.853333 
	C501.714050,185.410400 501.721375,190.523590 501.712433,195.636765 
	C501.695892,205.130539 501.471405,214.630051 501.744598,224.115311 
	C501.855408,227.962189 500.360352,229.947586 497.017242,231.221893 
	C489.808228,233.969772 482.440857,234.780945 475.012878,232.599060 
	C465.315369,229.750519 462.502838,221.579956 461.378662,212.930832 
	C459.289215,196.855164 458.980652,180.667587 462.220276,164.705002 
	C465.620758,147.949677 474.084991,139.649643 493.813324,142.994339 
	C501.332886,144.269196 503.017883,148.770035 499.395264,155.898834 
	C498.010956,155.416748 496.630859,154.852417 495.204590,154.452927 
	C485.620941,151.768585 477.451508,155.580994 475.233521,164.908112 
	C471.376068,181.129807 471.782440,197.579788 474.745544,213.944656 
	C475.086884,215.829773 476.337463,217.550278 477.450165,219.622238 
z"/>
<path fill="#61ADA7" opacity="1.000000" stroke="none" 
	d="
M373.768799,187.409424 
	C371.928741,188.465790 370.210114,189.511734 368.426971,189.636703 
	C364.500366,189.911865 360.541138,189.722122 356.326111,189.722122 
	C356.326111,200.592957 356.326111,210.862717 356.326111,221.718414 
	C362.783112,221.718414 369.347565,221.718414 376.578766,221.718414 
	C376.578766,224.547180 377.048462,226.944885 376.419250,229.007339 
	C375.974762,230.464218 374.078094,232.461594 372.766083,232.510529 
	C364.286194,232.826782 355.784943,232.793457 347.302216,232.519440 
	C346.267639,232.486008 344.437561,230.338043 344.430450,229.161270 
	C344.266876,202.022202 344.257874,174.881607 344.435547,147.742706 
	C344.445099,146.285248 346.297913,143.615509 347.361420,143.580200 
	C357.125916,143.255859 366.905609,143.389252 376.424225,143.389252 
	C376.731171,144.133606 376.835663,144.282501 376.851471,144.440292 
	C377.800415,153.908478 377.731537,153.985352 368.371338,153.985550 
	C364.547607,153.985641 360.723877,153.985550 356.471863,153.985550 
	C356.471863,162.221786 356.471863,170.246094 356.471863,178.757233 
	C362.089722,178.757233 367.677734,178.757233 373.860992,178.757233 
	C373.860992,181.810669 373.860992,184.395935 373.768799,187.409424 
z"/>
<path fill="#60ACA6" opacity="1.000000" stroke="none" 
	d="
M153.990295,212.999634 
	C153.990311,191.355103 154.085800,170.209656 153.910461,149.066452 
	C153.875061,144.798004 155.042953,143.095306 159.534286,143.237335 
	C168.464630,143.519714 177.410172,143.320877 186.796280,143.320877 
	C186.796280,145.607864 186.695969,147.242691 186.816269,148.861115 
	C187.105148,152.747238 185.419571,154.234131 181.515823,154.040710 
	C176.553299,153.794846 171.569351,153.981186 166.174591,153.981186 
	C166.174591,162.322342 166.174591,170.327087 166.174591,178.896423 
	C171.942871,178.896423 177.520615,178.896423 183.481140,178.896423 
	C183.481140,181.563080 183.533310,183.677582 183.468491,185.788498 
	C183.378952,188.704391 181.770096,189.824051 178.916687,189.743546 
	C174.789673,189.627106 170.656921,189.713760 166.140823,189.713760 
	C166.140823,200.566330 166.140823,210.948593 166.140823,221.892181 
	C172.570358,221.892181 178.978455,221.892181 185.299103,221.892181 
	C185.645950,222.856323 185.928040,223.297272 185.949387,223.750504 
	C186.370331,232.678406 186.364151,232.678940 177.602325,232.679367 
	C169.972565,232.679718 162.342789,232.679443 153.990295,232.679443 
	C153.990295,226.001648 153.990295,219.750565 153.990295,212.999634 
z"/>
<path fill="#60ACA6" opacity="1.000000" stroke="none" 
	d="
M588.169800,178.911530 
	C592.770203,178.911880 596.892761,178.911880 601.340393,178.911880 
	C601.340393,181.514923 601.353638,183.621246 601.337219,185.727325 
	C601.314331,188.654953 599.810608,189.829559 596.913269,189.744385 
	C592.785156,189.623062 588.650818,189.713547 584.118652,189.713547 
	C584.118652,200.554916 584.118652,210.936188 584.118652,221.871399 
	C590.526978,221.871399 596.937195,221.871399 603.467163,221.871399 
	C603.711060,222.980713 603.945007,223.590073 603.965393,224.206512 
	C604.246399,232.677933 604.239197,232.678589 595.614075,232.679276 
	C587.983276,232.679886 580.352539,232.679428 572.292236,232.679428 
	C572.169922,230.687881 571.987915,229.095718 571.986816,227.503433 
	C571.969177,201.530426 572.075195,175.556656 571.881531,149.585068 
	C571.846680,144.906204 573.024353,143.021561 577.994019,143.223373 
	C586.620056,143.573654 595.270508,143.320679 604.756836,143.320679 
	C604.756836,145.713821 604.737732,147.782379 604.761414,149.850449 
	C604.794434,152.737366 603.503723,154.076508 600.507019,154.010681 
	C595.201111,153.894150 589.890869,153.978012 583.781555,153.978012 
	C583.781555,161.860001 583.680969,169.429581 583.951660,176.985870 
	C583.976257,177.671417 586.388550,178.271454 588.169800,178.911530 
z"/>
<path fill="#5FACA6" opacity="1.000000" stroke="none" 
	d="
M543.519836,144.245972 
	C547.773743,143.468719 551.709778,142.198639 555.577515,142.380768 
	C564.200500,142.786835 566.662109,147.394562 563.106201,155.835220 
	C562.396973,155.624374 561.635986,155.459473 560.921814,155.176422 
	C553.127258,152.087128 546.870422,154.304062 543.991455,162.217468 
	C542.031128,167.605606 540.705017,173.484299 540.501282,179.193787 
	C540.152710,188.966248 540.172791,198.869827 541.385376,208.549576 
	C542.839966,220.161301 549.236511,223.237289 560.240417,218.950760 
	C560.982910,218.661514 561.726074,218.373856 562.443970,218.095154 
	C566.066162,224.913727 564.647827,229.744614 557.907715,232.177689 
	C547.810791,235.822510 533.644226,234.606735 530.511108,219.291611 
	C526.394470,199.168869 526.038940,178.991791 531.934753,159.072006 
	C533.777283,152.846848 537.193542,147.586700 543.519836,144.245972 
z"/>
<path fill="#878787" opacity="1.000000" stroke="none" 
	d="
M745.347534,157.876251 
	C744.372314,155.912933 743.138611,153.945175 743.378906,152.177811 
	C745.180603,138.925568 755.731567,130.551270 770.154175,131.758530 
	C775.743835,132.226425 781.145020,134.956284 786.629395,136.664520 
	C788.480286,137.241058 790.283203,138.099457 792.175720,138.392914 
	C801.336670,139.813507 806.505066,145.426514 806.589783,154.617279 
	C806.695740,166.115601 806.522766,177.616776 806.664978,189.114319 
	C806.712891,192.991959 805.330566,194.024277 801.541748,193.409683 
	C794.805298,192.316971 791.099854,188.054779 788.610718,182.181458 
	C783.548889,185.789200 779.950500,189.954254 782.664185,197.437515 
	C785.954163,197.437515 789.565613,197.294357 793.162048,197.465622 
	C802.245239,197.898193 808.863586,203.026367 810.269836,210.750488 
	C810.451050,211.745667 809.668396,212.916336 809.332214,214.005707 
	C808.691101,213.211868 807.763550,212.515915 807.453674,211.608917 
	C804.734131,203.648499 801.129700,200.845444 792.887146,200.590302 
	C790.056641,200.502670 787.195251,200.325638 784.394043,200.623260 
	C779.907227,201.099976 778.263489,199.271179 778.894592,194.928955 
	C779.083069,193.632202 778.923706,192.284912 778.923706,191.324493 
	C772.724792,191.324493 766.742798,191.324493 760.393677,191.324493 
	C760.417053,191.283508 760.032471,191.659790 759.993469,192.068970 
	C759.184998,200.565506 759.192749,200.560516 750.667542,200.571976 
	C748.502014,200.574875 746.328979,200.521622 744.172302,200.674988 
	C735.992004,201.256607 731.062622,206.449524 730.949219,214.617584 
	C730.879761,219.616318 731.002625,224.618301 730.890442,229.615494 
	C730.860840,230.934662 730.279541,232.241455 728.945251,233.416840 
	C728.693237,224.558060 726.085754,215.673065 729.666138,207.132111 
	C732.577026,200.188217 738.608276,197.621643 745.802490,197.448059 
	C749.275757,197.364243 752.752686,197.433594 756.376221,197.433594 
	C757.281494,192.531860 757.568298,188.673431 753.312561,185.073547 
	C748.525696,181.024368 747.196472,175.040451 747.062927,168.780807 
	C746.985962,165.167892 746.224854,161.569550 745.347534,157.876251 
M754.649719,157.893661 
	C753.221069,158.006943 751.792358,158.120209 750.081421,158.255859 
	C750.081421,163.107635 749.821716,167.594681 750.139160,172.040543 
	C750.684509,179.678299 757.106934,186.877457 764.588379,188.722809 
	C772.617004,190.703125 780.931274,187.286713 785.412170,180.377716 
	C789.978088,173.337708 788.014221,165.764801 788.130432,157.893280 
	C776.875000,157.893280 766.248474,157.893280 754.649719,157.893661 
M784.228882,150.837769 
	C784.630554,149.866867 785.032227,148.895950 785.433838,147.925049 
	C785.838257,148.018646 786.242615,148.112259 786.646973,148.205856 
	C786.950623,150.382919 787.254211,152.559982 787.596680,155.015686 
	C789.272278,154.870987 790.682495,154.749191 792.058960,154.630325 
	C792.031921,142.171249 783.842163,135.055313 769.936768,134.621445 
	C754.932495,134.153320 746.419678,142.767456 746.280823,154.616089 
	C747.832458,154.616089 749.374695,154.616089 750.712219,154.616089 
	C751.248657,152.121170 751.695007,150.045151 752.141357,147.969131 
	C752.645874,148.047104 753.150391,148.125092 753.654907,148.203064 
	C753.961060,150.379944 754.267212,152.556808 754.571167,154.718231 
	C757.153687,154.718231 759.428040,154.718231 761.630249,154.718231 
	C762.176331,152.289032 762.663818,150.120773 763.151245,147.952530 
	C763.687988,148.062042 764.224670,148.171555 764.761414,148.281082 
	C764.981018,150.358871 765.200562,152.436661 765.435425,154.658905 
	C768.066589,154.658905 770.467468,154.658905 772.674133,154.658905 
	C773.212402,152.193161 773.673523,150.080627 774.134644,147.968094 
	C774.642151,148.040909 775.149597,148.113724 775.657104,148.186539 
	C775.936523,150.348022 776.216003,152.509506 776.561523,155.182251 
	C779.270630,153.624603 783.881897,158.078461 784.228882,150.837769 
M794.097656,147.692520 
	C794.421997,151.501694 798.321655,156.079803 791.736328,158.450439 
	C791.328003,158.597412 791.209778,159.958054 791.205627,160.755310 
	C791.173462,166.915543 790.904968,173.094833 791.290955,179.231659 
	C791.735779,186.303268 797.269592,190.748917 803.734985,189.470688 
	C803.734985,177.241699 804.007812,164.933014 803.625427,152.644699 
	C803.419434,146.023209 798.249084,141.817535 791.971130,142.342148 
	C792.632080,143.925369 793.252747,145.412170 794.097656,147.692520 
z"/>
<path fill="#60ACA6" opacity="1.000000" stroke="none" 
	d="
M232.945007,221.971832 
	C232.945023,198.180008 232.944931,174.884140 232.945114,151.588287 
	C232.945175,143.314072 232.945526,143.306732 241.189926,143.381866 
	C242.159744,143.390717 243.128342,143.534088 244.616364,143.658463 
	C244.616364,169.355606 244.616364,194.894058 244.616364,221.094162 
	C251.496460,221.094162 257.877869,221.094162 263.768799,221.094162 
	C264.449768,222.001541 264.783539,222.240906 264.808289,222.508850 
	C265.748474,232.678955 265.744659,232.679352 255.537506,232.679443 
	C248.246750,232.679504 240.955994,232.679443 232.945038,232.679443 
	C232.945038,228.983795 232.945038,225.725815 232.945007,221.971832 
z"/>
<path fill="#60ACA6" opacity="1.000000" stroke="none" 
	d="
M650.935425,227.807266 
	C650.935364,202.534119 650.935425,177.739212 650.935425,152.944321 
	C650.935486,142.827087 651.859680,142.085068 662.705444,144.020996 
	C662.705444,169.459305 662.705444,195.001495 662.705444,221.189697 
	C669.601013,221.189697 675.990723,221.189697 682.219727,221.189697 
	C682.623657,222.248871 682.918945,222.684814 682.942688,223.135086 
	C683.446533,232.678879 683.440491,232.679291 673.858582,232.679398 
	C667.701477,232.679474 661.537476,232.505173 655.389893,232.747131 
	C651.938538,232.882965 650.376770,231.819702 650.935425,227.807266 
z"/>
<path fill="#5CAAA4" opacity="1.000000" stroke="none" 
	d="
M623.138550,146.181091 
	C623.162292,168.977310 623.132874,191.289978 623.183960,213.602478 
	C623.204834,222.723938 621.957458,221.641251 631.539734,221.717117 
	C635.479431,221.748306 639.419495,221.722290 643.245972,221.722290 
	C643.569580,222.831909 643.794800,223.289322 643.826477,223.759766 
	C644.401367,232.305939 644.396362,232.307159 635.716003,232.308517 
	C627.940369,232.309738 620.164734,232.308762 612.121643,232.308762 
	C611.976257,230.264328 611.783997,228.812790 611.783020,227.361115 
	C611.764893,201.385254 611.729431,175.409180 611.856323,149.433929 
	C611.865295,147.608749 613.087280,144.244278 613.784851,144.233795 
	C616.889832,144.187134 620.617859,141.815369 623.138550,146.181091 
z"/>
<path fill="#5CAAA4" opacity="1.000000" stroke="none" 
	d="
M193.803802,179.000000 
	C193.803802,169.176697 193.800735,159.853409 193.805115,150.530106 
	C193.808304,143.736862 193.812775,143.723984 200.693817,143.763412 
	C201.984726,143.770828 203.274780,143.926895 205.199066,144.057343 
	C205.199066,146.217194 205.199066,148.159119 205.199081,150.101028 
	C205.199112,172.243851 205.305283,194.387634 205.106461,216.528671 
	C205.068344,220.774460 206.433441,222.048355 210.512909,221.794693 
	C215.436462,221.488556 220.393570,221.722168 225.642609,221.722168 
	C225.749176,223.941788 225.728821,225.574951 225.924301,227.181839 
	C226.402649,231.114227 224.733887,232.468338 220.816833,232.373413 
	C212.040619,232.160721 203.255707,232.306808 193.803940,232.306808 
	C193.803940,214.344223 193.803940,196.922119 193.803802,179.000000 
z"/>
<path fill="#5FABA5" opacity="1.000000" stroke="none" 
	d="
M384.056519,195.000000 
	C384.056519,180.361725 384.055450,166.223450 384.056824,152.085175 
	C384.057587,144.069199 384.059448,144.069733 392.312073,143.730331 
	C393.299774,143.689728 394.287048,143.639633 395.986908,143.560974 
	C395.986908,145.476135 395.986938,147.235367 395.986938,148.994614 
	C395.986938,174.443512 395.987671,199.892410 395.986359,225.341309 
	C395.986023,231.999252 395.983368,232.009216 389.288544,232.249390 
	C387.814789,232.302261 386.337524,232.257111 384.056488,232.257111 
	C384.056488,219.954727 384.056488,207.727356 384.056519,195.000000 
z"/>
<path fill="#888888" opacity="1.000000" stroke="none" 
	d="
M704.984985,235.477203 
	C707.265564,233.118774 709.292908,230.767288 711.845154,229.384995 
	C715.721558,227.285492 718.267700,229.562134 719.075684,235.661453 
	C724.571960,235.661453 730.119873,235.661453 735.643982,235.661453 
	C736.585205,229.392563 738.087585,227.683075 742.211975,229.282684 
	C745.051636,230.384048 748.582092,232.365936 749.591614,234.852448 
	C750.862854,237.983612 750.207397,242.073013 749.741882,245.665909 
	C749.471924,247.749741 740.029297,252.068390 738.338989,250.846542 
	C736.807434,249.739441 736.191101,247.366287 734.822937,244.931442 
	C730.246399,244.931442 724.858704,244.931442 719.209534,244.931442 
	C718.793762,246.891174 718.395386,248.769073 717.934509,250.941757 
	C714.933289,250.217575 711.030518,253.444565 709.653992,247.970505 
	C709.469360,247.236206 707.088074,247.054276 704.966736,246.373520 
	C704.966736,243.122803 704.966736,239.520477 704.984985,235.477203 
M734.992676,239.058640 
	C729.508728,239.058640 724.024780,239.058640 717.304626,239.058640 
	C718.788330,240.679840 719.186218,241.501877 719.603882,241.512024 
	C724.589600,241.633163 729.579590,241.686432 734.564087,241.570511 
	C734.986328,241.560684 735.377319,240.208359 734.992676,239.058640 
M715.818237,242.274261 
	C715.637085,238.862198 715.455872,235.450134 715.274719,232.038086 
	C714.732178,232.105820 714.189636,232.173553 713.647095,232.241302 
	C713.647095,237.632111 713.647095,243.022919 713.647095,248.413727 
	C714.139343,248.455902 714.631592,248.498077 715.123779,248.540253 
	C715.355225,246.755051 715.586609,244.969849 715.818237,242.274261 
M739.046448,246.125916 
	C739.423279,246.756516 739.800049,247.387131 740.176880,248.017731 
	C740.738586,247.390732 741.768311,246.776825 741.786255,246.134583 
	C741.906128,241.851868 741.859070,237.561432 741.713501,233.278702 
	C741.697754,232.815018 740.706787,232.384476 740.094788,231.877838 
	C739.654541,232.397690 739.291504,232.625961 739.285034,232.863907 
	C739.173523,236.974152 739.105835,241.085571 739.046448,246.125916 
z"/>
<path fill="#878787" opacity="1.000000" stroke="none" 
	d="
M774.977539,234.005859 
	C773.080872,232.108521 771.324646,230.552628 769.807007,228.791138 
	C766.982239,225.512680 763.938416,222.968918 759.163452,223.808426 
	C758.480835,223.928452 757.635010,223.120743 756.873840,221.609863 
	C758.462891,221.267975 760.051941,220.926102 762.191467,220.465790 
	C761.457275,215.764282 762.076050,211.266876 766.732483,208.534531 
	C771.313538,205.846405 775.364929,207.472137 779.372620,210.465576 
	C783.459961,207.472488 787.833679,205.621323 792.574341,208.957169 
	C796.585327,211.779602 797.782471,215.695709 796.228333,220.618179 
	C798.289551,220.853119 800.182617,221.068878 802.075684,221.284637 
	C802.218933,221.653183 802.362183,222.021713 802.505432,222.390259 
	C801.536987,222.891586 800.473633,223.948624 799.615845,223.802139 
	C794.814209,222.982239 791.749573,225.504242 789.012878,228.834137 
	C786.267395,232.174652 783.545471,235.534653 780.579468,239.173035 
	C777.857666,236.672531 776.541687,235.463531 774.977539,234.005859 
M779.478882,214.056808 
	C778.139160,213.135147 776.830261,212.164230 775.453796,211.301163 
	C771.461243,208.797668 765.959900,210.740829 765.196594,215.196213 
	C764.905029,216.898056 765.520447,220.044067 766.496155,220.397720 
	C768.354065,221.071152 770.993408,220.694214 772.874390,219.819901 
	C774.186096,219.210175 774.774902,217.045319 776.202393,214.743332 
	C778.305298,217.999847 779.868591,220.420746 781.051086,222.252014 
	C783.737976,221.762405 785.927979,221.487534 788.047546,220.940079 
	C789.938049,220.451767 792.983337,220.034958 793.320190,218.921463 
	C793.880798,217.068130 793.350891,214.031036 792.047546,212.695084 
	C790.588745,211.199814 787.698608,210.336105 785.542786,210.518051 
	C783.683777,210.674927 781.981262,212.685532 779.478882,214.056808 
M774.814514,229.654037 
	C775.967712,231.467865 777.120850,233.281693 777.957275,234.597275 
	C782.298828,230.283234 785.329956,227.271255 788.361145,224.259293 
	C788.219177,223.988144 788.077209,223.716995 787.935242,223.445847 
	C785.723267,224.798508 783.511292,226.151154 780.928467,227.730591 
	C779.480652,225.379059 778.022339,223.010468 776.793762,221.015121 
	C774.580139,222.315094 772.481750,223.547424 769.295593,225.418518 
	C771.120605,226.777084 772.717468,227.965820 774.814514,229.654037 
z"/>
<path fill="#888888" opacity="1.000000" stroke="none" 
	d="
M809.457642,226.059814 
	C811.382874,225.899338 812.893677,225.788452 814.284485,225.686356 
	C812.455078,222.542923 810.947754,219.952972 809.440491,217.363037 
	C812.969971,216.282974 816.499512,215.202881 821.099365,213.795258 
	C819.609741,218.632324 818.572693,221.999680 817.408875,225.778748 
	C819.550415,225.892044 821.016541,225.872711 822.454895,226.063492 
	C827.127930,226.683319 830.602295,230.372971 831.026672,235.063293 
	C831.699646,242.500748 826.015808,250.572083 819.783936,251.028717 
	C808.514282,251.854523 801.711182,247.002502 800.964050,237.606140 
	C800.505920,231.844467 802.885925,228.457672 809.457642,226.059814 
M823.536682,246.350067 
	C824.814453,244.422668 826.900146,242.604782 827.179810,240.542068 
	C827.593994,237.486954 827.672058,233.599548 826.087097,231.325027 
	C824.950256,229.693649 820.869507,230.050537 818.082825,229.658234 
	C816.651306,229.456696 815.125244,229.791336 813.731445,229.481079 
	C806.674866,227.910339 802.265198,232.483826 804.234192,239.438034 
	C806.550842,247.619736 814.295654,250.704910 823.536682,246.350067 
z"/>
<path fill="#61ADA7" opacity="1.000000" stroke="none" 
	d="
M277.924683,201.873199 
	C272.498505,201.873123 267.560577,201.873123 262.174255,201.873123 
	C262.174255,199.227921 261.690338,196.959839 262.329346,195.071808 
	C262.829163,193.595108 264.673004,191.604889 266.003204,191.539383 
	C273.094940,191.190170 280.212952,191.374893 287.597931,191.374893 
	C287.768921,192.855621 287.999451,193.950012 288.004639,195.045456 
	C288.035492,201.527313 287.704742,201.850739 281.400391,201.872696 
	C280.404572,201.876160 279.408722,201.873245 277.924683,201.873199 
z"/>
<path fill="#888888" opacity="1.000000" stroke="none" 
	d="
M731.534180,149.456238 
	C725.108887,155.834335 716.903748,156.720856 710.646851,151.977280 
	C704.704651,147.472321 702.926697,138.661530 706.684753,132.342911 
	C711.115540,124.893250 720.496826,122.561028 727.898071,127.069313 
	C735.570496,131.742737 737.135010,140.688065 731.534180,149.456238 
M727.075562,149.763245 
	C731.435730,146.313965 733.166199,141.782196 731.623901,136.495422 
	C730.286804,131.911774 727.145142,128.736816 722.171387,127.963203 
	C716.970398,127.154236 712.624146,128.608627 709.573059,133.119583 
	C706.608826,137.501938 707.033752,143.796677 710.557922,147.963196 
	C714.369995,152.470108 720.022278,153.260239 727.075562,149.763245 
z"/>
<path fill="#888888" opacity="1.000000" stroke="none" 
	d="
M806.525330,134.691376 
	C808.448914,128.732895 811.945129,125.198456 818.105408,124.970139 
	C823.782715,124.759727 827.935486,127.230507 830.143372,132.068359 
	C832.245544,136.674377 831.215820,142.161850 827.550293,145.887299 
	C823.981812,149.514130 818.354919,150.586777 813.746643,148.518829 
	C808.764832,146.283234 806.148132,141.485199 806.525330,134.691376 
M812.589294,129.893585 
	C809.240051,133.288193 807.954407,137.136810 810.365112,141.565002 
	C812.381470,145.268906 815.701599,146.917191 819.842957,146.472061 
	C823.779175,146.048981 826.735596,143.938416 827.831238,140.045654 
	C828.940857,136.103409 828.152588,132.433060 824.757874,129.785965 
	C821.055969,126.899231 817.135681,127.147194 812.589294,129.893585 
z"/>
<path fill="#888888" opacity="1.000000" stroke="none" 
	d="
M714.612671,175.633667 
	C720.770325,170.609863 726.645996,170.194763 731.616577,174.165985 
	C736.166443,177.801071 737.656738,183.880325 735.244080,188.963120 
	C732.084534,195.619400 724.312988,198.225906 717.944336,194.765320 
	C711.098389,191.045364 709.640259,183.340683 714.612671,175.633667 
M715.974548,178.620743 
	C713.329468,182.633530 713.815918,186.487244 716.714844,190.100479 
	C719.330750,193.360947 723.283264,194.323013 726.585327,192.742432 
	C729.334778,191.426392 731.951050,188.401093 733.100647,185.523422 
	C734.661011,181.617355 732.424683,178.069031 728.952820,175.796036 
	C725.049744,173.240692 720.637695,174.130600 715.974548,178.620743 
z"/>
<path fill="#878787" opacity="1.000000" stroke="none" 
	d="
M816.720886,175.512634 
	C824.176697,173.267990 829.656250,175.741150 830.915955,181.570084 
	C832.144409,187.254440 828.714478,192.494873 823.018860,193.359955 
	C818.360046,194.067566 814.904968,192.104492 812.809814,187.942276 
	C810.641785,183.635147 811.830322,179.805267 816.720886,175.512634 
M826.948792,179.818878 
	C821.941101,175.635345 815.739502,176.800446 815.179626,182.348022 
	C814.946716,184.655106 816.372986,188.050476 818.191467,189.366135 
	C819.780701,190.515930 823.387146,190.222137 825.373901,189.178818 
	C828.790039,187.384872 828.901001,183.921677 826.948792,179.818878 
z"/>
<path fill="#F5F7F7" opacity="1.000000" stroke="none" 
	d="
M309.077209,216.838745 
	C309.077209,207.578918 309.077209,198.800903 309.077209,190.113708 
	C317.600220,187.469742 322.611511,190.058502 323.363800,198.393478 
	C323.856995,203.858017 323.269836,209.680435 321.850159,214.990631 
	C320.115875,221.477432 316.712189,222.819397 309.331818,221.602371 
	C309.249969,220.225616 309.163605,218.773087 309.077209,216.838745 
z"/>
<path fill="#F5F7F7" opacity="1.000000" stroke="none" 
	d="
M317.898590,154.645813 
	C322.767334,159.815674 323.589874,171.802017 318.985565,176.440613 
	C316.917969,178.523590 313.169189,178.937820 309.384430,180.422699 
	C309.384430,170.751404 309.384430,162.702148 309.384430,153.802002 
	C312.168121,154.012314 314.859741,154.215652 317.898590,154.645813 
z"/>
<path fill="#F6F6F6" opacity="1.000000" stroke="none" 
	d="
M755.135803,157.893463 
	C766.248474,157.893280 776.875000,157.893280 788.130432,157.893280 
	C788.014221,165.764801 789.978088,173.337708 785.412170,180.377716 
	C780.931274,187.286713 772.617004,190.703125 764.588379,188.722809 
	C757.106934,186.877457 750.684509,179.678299 750.139160,172.040543 
	C749.821716,167.594681 750.081421,163.107635 750.081421,158.255859 
	C751.792358,158.120209 753.221069,158.006943 755.135803,157.893463 
M765.768127,178.279816 
	C764.752319,177.311630 763.736511,176.343445 762.720703,175.375259 
	C762.501404,180.652496 765.480957,182.386429 769.610046,182.395157 
	C773.701721,182.403824 776.060181,180.003677 776.292664,176.940292 
	C773.138855,177.525909 769.760315,178.153259 765.768127,178.279816 
M778.632202,164.951843 
	C780.235840,165.767532 781.839539,166.583221 783.909973,167.636322 
	C783.992310,163.555206 782.051636,162.021698 778.882385,162.018738 
	C775.653076,162.015732 774.010254,163.778366 773.641174,168.390320 
	C775.782654,166.735580 776.845459,165.914352 778.632202,164.951843 
M764.813538,166.528549 
	C764.324036,163.047668 761.989075,161.425323 758.891907,162.166428 
	C757.050598,162.607025 755.598633,164.674850 754.428589,165.635757 
	C758.171753,166.176712 761.201355,166.614548 764.813538,166.528549 
z"/>
<path fill="#F7F7F7" opacity="1.000000" stroke="none" 
	d="
M784.225952,151.270416 
	C783.881897,158.078461 779.270630,153.624603 776.561523,155.182251 
	C776.216003,152.509506 775.936523,150.348022 775.657104,148.186539 
	C775.149597,148.113724 774.642151,148.040909 774.134644,147.968094 
	C773.673523,150.080627 773.212402,152.193161 772.674133,154.658905 
	C770.467468,154.658905 768.066589,154.658905 765.435425,154.658905 
	C765.200562,152.436661 764.981018,150.358871 764.761414,148.281082 
	C764.224670,148.171555 763.687988,148.062042 763.151245,147.952530 
	C762.663818,150.120773 762.176331,152.289032 761.630249,154.718231 
	C759.428040,154.718231 757.153687,154.718231 754.571167,154.718231 
	C754.267212,152.556808 753.961060,150.379944 753.654907,148.203064 
	C753.150391,148.125092 752.645874,148.047104 752.141357,147.969131 
	C751.695007,150.045151 751.248657,152.121170 750.712219,154.616089 
	C749.374695,154.616089 747.832458,154.616089 746.280823,154.616089 
	C746.419678,142.767456 754.932495,134.153320 769.936768,134.621445 
	C783.842163,135.055313 792.031921,142.171249 792.058960,154.630325 
	C790.682495,154.749191 789.272278,154.870987 787.596680,155.015686 
	C787.254211,152.559982 786.950623,150.382919 786.646973,148.205856 
	C786.242615,148.112259 785.838257,148.018646 785.433838,147.925049 
	C785.032227,148.895950 784.630554,149.866867 784.225952,151.270416 
z"/>
<path fill="#F3F3F3" opacity="1.000000" stroke="none" 
	d="
M793.985596,147.295746 
	C793.252747,145.412170 792.632080,143.925369 791.971130,142.342148 
	C798.249084,141.817535 803.419434,146.023209 803.625427,152.644699 
	C804.007812,164.933014 803.734985,177.241699 803.734985,189.470688 
	C797.269592,190.748917 791.735779,186.303268 791.290955,179.231659 
	C790.904968,173.094833 791.173462,166.915543 791.205627,160.755310 
	C791.209778,159.958054 791.328003,158.597412 791.736328,158.450439 
	C798.321655,156.079803 794.421997,151.501694 793.985596,147.295746 
z"/>
<path fill="#F1F1F1" opacity="1.000000" stroke="none" 
	d="
M735.387695,239.269165 
	C735.377319,240.208359 734.986328,241.560684 734.564087,241.570511 
	C729.579590,241.686432 724.589600,241.633163 719.603882,241.512024 
	C719.186218,241.501877 718.788330,240.679840 717.304626,239.058640 
	C724.024780,239.058640 729.508728,239.058640 735.387695,239.269165 
z"/>
<path fill="#F1F1F1" opacity="1.000000" stroke="none" 
	d="
M715.818115,242.729446 
	C715.586609,244.969849 715.355225,246.755051 715.123779,248.540253 
	C714.631592,248.498077 714.139343,248.455902 713.647095,248.413727 
	C713.647095,243.022919 713.647095,237.632111 713.647095,232.241302 
	C714.189636,232.173553 714.732178,232.105820 715.274719,232.038086 
	C715.455872,235.450134 715.637085,238.862198 715.818115,242.729446 
z"/>
<path fill="#F1F1F1" opacity="1.000000" stroke="none" 
	d="
M739.037476,245.661331 
	C739.105835,241.085571 739.173523,236.974152 739.285034,232.863907 
	C739.291504,232.625961 739.654541,232.397690 740.094788,231.877838 
	C740.706787,232.384476 741.697754,232.815018 741.713501,233.278702 
	C741.859070,237.561432 741.906128,241.851868 741.786255,246.134583 
	C741.768311,246.776825 740.738586,247.390732 740.176880,248.017731 
	C739.800049,247.387131 739.423279,246.756516 739.037476,245.661331 
z"/>
<path fill="#F6F6F6" opacity="1.000000" stroke="none" 
	d="
M779.844238,213.966705 
	C781.981262,212.685532 783.683777,210.674927 785.542786,210.518051 
	C787.698608,210.336105 790.588745,211.199814 792.047546,212.695084 
	C793.350891,214.031036 793.880798,217.068130 793.320190,218.921463 
	C792.983337,220.034958 789.938049,220.451767 788.047546,220.940079 
	C785.927979,221.487534 783.737976,221.762405 781.051086,222.252014 
	C779.868591,220.420746 778.305298,217.999847 776.202393,214.743332 
	C774.774902,217.045319 774.186096,219.210175 772.874390,219.819901 
	C770.993408,220.694214 768.354065,221.071152 766.496155,220.397720 
	C765.520447,220.044067 764.905029,216.898056 765.196594,215.196213 
	C765.959900,210.740829 771.461243,208.797668 775.453796,211.301163 
	C776.830261,212.164230 778.139160,213.135147 779.844238,213.966705 
z"/>
<path fill="#F6F6F6" opacity="1.000000" stroke="none" 
	d="
M774.564453,229.404297 
	C772.717468,227.965820 771.120605,226.777084 769.295593,225.418518 
	C772.481750,223.547424 774.580139,222.315094 776.793762,221.015121 
	C778.022339,223.010468 779.480652,225.379059 780.928467,227.730591 
	C783.511292,226.151154 785.723267,224.798508 787.935242,223.445847 
	C788.077209,223.716995 788.219177,223.988144 788.361145,224.259293 
	C785.329956,227.271255 782.298828,230.283234 777.957275,234.597275 
	C777.120850,233.281693 775.967712,231.467865 774.564453,229.404297 
z"/>
<path fill="#F7F7F7" opacity="1.000000" stroke="none" 
	d="
M823.231384,246.617035 
	C814.295654,250.704910 806.550842,247.619736 804.234192,239.438034 
	C802.265198,232.483826 806.674866,227.910339 813.731445,229.481079 
	C815.125244,229.791336 816.651306,229.456696 818.082825,229.658234 
	C820.869507,230.050537 824.950256,229.693649 826.087097,231.325027 
	C827.672058,233.599548 827.593994,237.486954 827.179810,240.542068 
	C826.900146,242.604782 824.814453,244.422668 823.231384,246.617035 
z"/>
<path fill="#F5F5F5" opacity="1.000000" stroke="none" 
	d="
M726.749756,149.972198 
	C720.022278,153.260239 714.369995,152.470108 710.557922,147.963196 
	C707.033752,143.796677 706.608826,137.501938 709.573059,133.119583 
	C712.624146,128.608627 716.970398,127.154236 722.171387,127.963203 
	C727.145142,128.736816 730.286804,131.911774 731.623901,136.495422 
	C733.166199,141.782196 731.435730,146.313965 726.749756,149.972198 
M720.481079,131.790146 
	C719.316650,133.725739 718.152222,135.661346 716.802063,137.905716 
	C715.395752,138.280655 713.391968,138.814880 711.388184,139.349121 
	C711.503235,139.832672 711.618347,140.316223 711.733398,140.799774 
	C713.782532,141.078400 715.831604,141.357010 717.650879,141.604401 
	C718.201294,144.042023 718.668396,146.110947 719.135498,148.179871 
	C719.623535,148.097336 720.111572,148.014786 720.599548,147.932251 
	C720.966370,145.785782 721.333252,143.639313 721.680603,141.606552 
	C724.029358,141.255890 726.011963,140.959885 727.994568,140.663879 
	C728.036438,140.171936 728.078308,139.679977 728.120178,139.188034 
	C725.981018,138.691696 723.841858,138.195358 721.421814,137.633850 
	C721.276123,135.946106 721.122498,134.167252 720.481079,131.790146 
z"/>
<path fill="#F3F3F3" opacity="1.000000" stroke="none" 
	d="
M812.895386,129.641907 
	C817.135681,127.147194 821.055969,126.899231 824.757874,129.785965 
	C828.152588,132.433060 828.940857,136.103409 827.831238,140.045654 
	C826.735596,143.938416 823.779175,146.048981 819.842957,146.472061 
	C815.701599,146.917191 812.381470,145.268906 810.365112,141.565002 
	C807.954407,137.136810 809.240051,133.288193 812.895386,129.641907 
M812.184875,136.525223 
	C813.608093,137.656586 815.031250,138.787949 816.869995,140.249619 
	C817.234558,141.125366 817.869934,142.651642 818.505310,144.177917 
	C818.875183,144.073837 819.244995,143.969757 819.614868,143.865677 
	C819.923340,142.307678 820.231812,140.749664 820.462830,139.582748 
	C822.477051,138.757294 824.171875,138.062698 825.866760,137.368118 
	C825.749390,137.025436 825.632019,136.682755 825.514648,136.340073 
	C823.804077,135.970062 822.093567,135.600067 820.498230,135.254990 
	C820.125183,133.327591 819.812317,131.710846 819.361877,129.383423 
	C816.410950,131.805161 817.939758,137.302109 812.184875,136.525223 
z"/>
<path fill="#F1F1F1" opacity="1.000000" stroke="none" 
	d="
M716.195190,178.313934 
	C720.637695,174.130600 725.049744,173.240692 728.952820,175.796036 
	C732.424683,178.069031 734.661011,181.617355 733.100647,185.523422 
	C731.951050,188.401093 729.334778,191.426392 726.585327,192.742432 
	C723.283264,194.323013 719.330750,193.360947 716.714844,190.100479 
	C713.815918,186.487244 713.329468,182.633530 716.195190,178.313934 
M718.154541,182.464966 
	C717.555481,184.765869 717.555481,184.765869 721.847290,185.743210 
	C722.329163,187.473434 722.800720,189.166748 723.272217,190.860046 
	C723.678467,190.815079 724.084778,190.770111 724.491028,190.725128 
	C724.941406,188.957565 725.391785,187.189987 725.814819,185.529724 
	C727.683960,185.168945 729.275208,184.861801 730.866516,184.554657 
	C730.866333,184.099564 730.866150,183.644455 730.865967,183.189362 
	C729.117798,182.700012 727.369568,182.210663 725.666260,181.733856 
	C725.245728,180.062607 724.852173,178.498672 724.527344,177.207718 
	C722.411438,179.165375 720.690735,180.757370 718.154541,182.464966 
z"/>
<path fill="#F1F1F1" opacity="1.000000" stroke="none" 
	d="
M827.159363,180.162781 
	C828.901001,183.921677 828.790039,187.384872 825.373901,189.178818 
	C823.387146,190.222137 819.780701,190.515930 818.191467,189.366135 
	C816.372986,188.050476 814.946716,184.655106 815.179626,182.348022 
	C815.739502,176.800446 821.941101,175.635345 827.159363,180.162781 
M820.047485,186.616013 
	C824.185547,189.806000 823.262878,183.726440 826.235046,184.141510 
	C824.277344,182.285538 822.944092,181.021530 821.446533,179.601822 
	C819.898132,181.231842 818.556213,182.644547 817.116394,184.160324 
	C818.245422,184.893707 819.037964,185.408478 820.047485,186.616013 
z"/>
<path fill="#888888" opacity="1.000000" stroke="none" 
	d="
M766.074951,178.530212 
	C769.760315,178.153259 773.138855,177.525909 776.292664,176.940292 
	C776.060181,180.003677 773.701721,182.403824 769.610046,182.395157 
	C765.480957,182.386429 762.501404,180.652496 762.720703,175.375259 
	C763.736511,176.343445 764.752319,177.311630 766.074951,178.530212 
z"/>
<path fill="#888888" opacity="1.000000" stroke="none" 
	d="
M778.270203,165.022491 
	C776.845459,165.914352 775.782654,166.735580 773.641174,168.390320 
	C774.010254,163.778366 775.653076,162.015732 778.882385,162.018738 
	C782.051636,162.021698 783.992310,163.555206 783.909973,167.636322 
	C781.839539,166.583221 780.235840,165.767532 778.270203,165.022491 
z"/>
<path fill="#878787" opacity="1.000000" stroke="none" 
	d="
M764.522217,166.790466 
	C761.201355,166.614548 758.171753,166.176712 754.428589,165.635757 
	C755.598633,164.674850 757.050598,162.607025 758.891907,162.166428 
	C761.989075,161.425323 764.324036,163.047668 764.522217,166.790466 
z"/>
<path fill="#8E8E8E" opacity="1.000000" stroke="none" 
	d="
M720.724976,132.089264 
	C721.122498,134.167252 721.276123,135.946106 721.421814,137.633850 
	C723.841858,138.195358 725.981018,138.691696 728.120178,139.188034 
	C728.078308,139.679977 728.036438,140.171936 727.994568,140.663879 
	C726.011963,140.959885 724.029358,141.255890 721.680603,141.606552 
	C721.333252,143.639313 720.966370,145.785782 720.599548,147.932251 
	C720.111572,148.014786 719.623535,148.097336 719.135498,148.179871 
	C718.668396,146.110947 718.201294,144.042023 717.650879,141.604401 
	C715.831604,141.357010 713.782532,141.078400 711.733398,140.799774 
	C711.618347,140.316223 711.503235,139.832672 711.388184,139.349121 
	C713.391968,138.814880 715.395752,138.280655 716.802063,137.905716 
	C718.152222,135.661346 719.316650,133.725739 720.724976,132.089264 
z"/>
<path fill="#8E8E8E" opacity="1.000000" stroke="none" 
	d="
M812.514404,136.267975 
	C817.939758,137.302109 816.410950,131.805161 819.361877,129.383423 
	C819.812317,131.710846 820.125183,133.327591 820.498230,135.254990 
	C822.093567,135.600067 823.804077,135.970062 825.514648,136.340073 
	C825.632019,136.682755 825.749390,137.025436 825.866760,137.368118 
	C824.171875,138.062698 822.477051,138.757294 820.462830,139.582748 
	C820.231812,140.749664 819.923340,142.307678 819.614868,143.865677 
	C819.244995,143.969757 818.875183,144.073837 818.505310,144.177917 
	C817.869934,142.651642 817.234558,141.125366 816.869995,140.249619 
	C815.031250,138.787949 813.608093,137.656586 812.514404,136.267975 
z"/>
<path fill="#888888" opacity="1.000000" stroke="none" 
	d="
M718.562256,182.407166 
	C720.690735,180.757370 722.411438,179.165375 724.527344,177.207718 
	C724.852173,178.498672 725.245728,180.062607 725.666260,181.733856 
	C727.369568,182.210663 729.117798,182.700012 730.865967,183.189362 
	C730.866150,183.644455 730.866333,184.099564 730.866516,184.554657 
	C729.275208,184.861801 727.683960,185.168945 725.814819,185.529724 
	C725.391785,187.189987 724.941406,188.957565 724.491028,190.725128 
	C724.084778,190.770111 723.678467,190.815079 723.272217,190.860046 
	C722.800720,189.166748 722.329163,187.473434 721.847290,185.743210 
	C717.555481,184.765869 717.555481,184.765869 718.562256,182.407166 
z"/>
<path fill="#8E8E8E" opacity="1.000000" stroke="none" 
	d="
M819.938965,186.269623 
	C819.037964,185.408478 818.245422,184.893707 817.116394,184.160324 
	C818.556213,182.644547 819.898132,181.231842 821.446533,179.601822 
	C822.944092,181.021530 824.277344,182.285538 826.235046,184.141510 
	C823.262878,183.726440 824.185547,189.806000 819.938965,186.269623 
z"/>
</svg>